<?xml version="1.0" encoding="UTF-8" standalone="no"?><svg xmlns="http://www.w3.org/2000/svg" xmlns:xlink="http://www.w3.org/1999/xlink" contentStyleType="text/css" height="1282px" preserveAspectRatio="none" style="width:2787px;height:1282px;background:#FFFFFF;" version="1.1" viewBox="0 0 2787 1282" width="2787px" zoomAndPan="magnify"><defs><filter height="300%" id="f1tgyp98ebdchz" width="300%" x="-1" y="-1"><feGaussianBlur result="blurOut" stdDeviation="2.0"/><feColorMatrix in="blurOut" result="blurOut2" type="matrix" values="0 0 0 0 0 0 0 0 0 0 0 0 0 0 0 0 0 0 .4 0"/><feOffset dx="4.0" dy="4.0" in="blurOut2" result="blurOut3"/><feBlend in="SourceGraphic" in2="blurOut3" mode="normal"/></filter></defs><g><!--MD5=[116765785aa0fcbf6c1ef097f497af79]
cluster cl.ucn.disc.pa.mandiosoft--><g id="cluster_cl.ucn.disc.pa.mandiosoft"><polygon fill="none" filter="url(#f1tgyp98ebdchz)" points="16,6,200,6,207,27.6406,2770,27.6406,2770,1273,16,1273,16,6" style="stroke:#000000;stroke-width:1.5;"/><line style="stroke:#000000;stroke-width:1.5;" x1="16" x2="207" y1="27.6406" y2="27.6406"/><text fill="#000000" font-family="sans-serif" font-size="14" font-weight="bold" lengthAdjust="spacing" textLength="178" x="20" y="20.6738">cl.ucn.disc.pa.mandiosoft</text></g><!--MD5=[5d4cd377749310b66bf14896f5cd8d9b]
cluster model--><g id="cluster_model"><polygon fill="none" filter="url(#f1tgyp98ebdchz)" points="510,48,559,48,566,69.6406,2746,69.6406,2746,633,510,633,510,48" style="stroke:#000000;stroke-width:1.5;"/><line style="stroke:#000000;stroke-width:1.5;" x1="510" x2="566" y1="69.6406" y2="69.6406"/><text fill="#000000" font-family="sans-serif" font-size="14" font-weight="bold" lengthAdjust="spacing" textLength="43" x="514" y="62.6738">model</text></g><!--MD5=[03c2ecdfa11f70b38eb496afaf3adc6b]
cluster services--><g id="cluster_services"><polygon fill="none" filter="url(#f1tgyp98ebdchz)" points="40,1081,107,1081,114,1102.6406,919.5,1102.6406,919.5,1249,40,1249,40,1081" style="stroke:#000000;stroke-width:1.5;"/><line style="stroke:#000000;stroke-width:1.5;" x1="40" x2="114" y1="1102.6406" y2="1102.6406"/><text fill="#000000" font-family="sans-serif" font-size="14" font-weight="bold" lengthAdjust="spacing" textLength="61" x="44" y="1095.6738">services</text></g><!--MD5=[c52f45833d539af9e29a9d34b8b7302b]
cluster utils--><g id="cluster_utils"><polygon fill="none" filter="url(#f1tgyp98ebdchz)" points="586.5,657,622.5,657,629.5,678.6406,894.5,678.6406,894.5,1057,586.5,1057,586.5,657" style="stroke:#000000;stroke-width:1.5;"/><line style="stroke:#000000;stroke-width:1.5;" x1="586.5" x2="629.5" y1="678.6406" y2="678.6406"/><text fill="#000000" font-family="sans-serif" font-size="14" font-weight="bold" lengthAdjust="spacing" textLength="30" x="590.5" y="671.6738">utils</text></g><!--MD5=[cf98b8104f7f757d2a3327e9c712e420]
class Funcionario--><g id="elem_Funcionario"><rect codeLine="9" fill="#FEFECE" filter="url(#f1tgyp98ebdchz)" height="251.3281" id="Funcionario" style="stroke:#A80036;stroke-width:1.0;" width="517" x="2213" y="342.5"/><ellipse cx="2429.75" cy="358.5" fill="#A9DCDF" rx="11" ry="11" style="stroke:#A80036;stroke-width:1.0;"/><path d="M2431.5,360 L2428.2031,360 L2427.7656,361 L2427.7656,361 L2428.2344,361 L2428.75,361.625 L2428.75,362 L2428.75,362.375 L2428.2344,363 L2427.7656,363 L2425.875,363 L2425.2656,363 L2424.75,362.375 L2424.75,362 L2424.75,361.625 L2425.2656,361 L2425.875,361 L2428.1875,355 L2427.3125,355 L2426.2656,355 L2425.75,354.375 L2425.75,354 L2425.75,353.625 L2426.2656,353 L2427.3125,353 L2430.9844,353 L2433.6719,361 L2434.2344,361 L2434.2344,361 L2434.75,361.625 L2434.75,362 L2434.75,362.375 L2434.2344,363 L2433.6719,363 L2431.7813,363 L2431.2656,363 L2430.75,362.375 L2430.75,362 L2430.75,361.625 L2431.2656,361 L2431.7813,361 L2431.7813,361 L2431.5,360 Z M2430.9531,358 L2429.75,354.4219 L2428.7188,358 L2430.9531,358 Z " fill="#000000"/><text fill="#000000" font-family="sans-serif" font-size="14" font-style="italic" lengthAdjust="spacing" textLength="75" x="2450.25" y="363.3535">Funcionario</text><line style="stroke:#A80036;stroke-width:1.0;" x1="2214" x2="2729" y1="374.5" y2="374.5"/><rect fill="none" height="6" style="stroke:#C82930;stroke-width:1.0;" width="6" x="2221" y="384.8203"/><text fill="#000000" font-family="sans-serif" font-size="14" lengthAdjust="spacing" textLength="146" x="2233" y="391.1738">MAX_PROYECTOS: int</text><rect fill="none" height="6" style="stroke:#C82930;stroke-width:1.0;" width="6" x="2221" y="400.4609"/><text fill="#000000" font-family="sans-serif" font-size="14" lengthAdjust="spacing" textLength="62" x="2233" y="406.8145">rut: String</text><rect fill="none" height="6" style="stroke:#C82930;stroke-width:1.0;" width="6" x="2221" y="416.1016"/><text fill="#000000" font-family="sans-serif" font-size="14" lengthAdjust="spacing" textLength="93" x="2233" y="422.4551">nombre: String</text><rect fill="none" height="6" style="stroke:#C82930;stroke-width:1.0;" width="6" x="2221" y="431.7422"/><text fill="#000000" font-family="sans-serif" font-size="14" lengthAdjust="spacing" textLength="102" x="2233" y="438.0957">direccion: String</text><rect fill="none" height="6" style="stroke:#C82930;stroke-width:1.0;" width="6" x="2221" y="447.3828"/><text fill="#000000" font-family="sans-serif" font-size="14" lengthAdjust="spacing" textLength="125" x="2233" y="453.7363">sueldoBase: double</text><line style="stroke:#A80036;stroke-width:1.0;" x1="2214" x2="2729" y1="460.7031" y2="460.7031"/><ellipse cx="2224" cy="474.0234" fill="#84BE84" rx="3" ry="3" style="stroke:#038048;stroke-width:1.0;"/><text fill="#000000" font-family="sans-serif" font-size="14" lengthAdjust="spacing" textLength="491" x="2233" y="477.377">Funcionario(rut: String, nombre: String, direccion: String, sueldoBase: double)</text><ellipse cx="2224" cy="489.6641" fill="#84BE84" rx="3" ry="3" style="stroke:#038048;stroke-width:1.0;"/><text fill="#000000" font-family="sans-serif" font-size="14" lengthAdjust="spacing" textLength="97" x="2233" y="493.0176">getRut(): String</text><ellipse cx="2224" cy="505.3047" fill="#84BE84" rx="3" ry="3" style="stroke:#038048;stroke-width:1.0;"/><text fill="#000000" font-family="sans-serif" font-size="14" lengthAdjust="spacing" textLength="124" x="2233" y="508.6582">getNombre(): String</text><ellipse cx="2224" cy="520.9453" fill="#84BE84" rx="3" ry="3" style="stroke:#038048;stroke-width:1.0;"/><text fill="#000000" font-family="sans-serif" font-size="14" lengthAdjust="spacing" textLength="134" x="2233" y="524.2988">getDireccion(): String</text><ellipse cx="2224" cy="536.5859" fill="#84BE84" rx="3" ry="3" style="stroke:#038048;stroke-width:1.0;"/><text fill="#000000" font-family="sans-serif" font-size="14" lengthAdjust="spacing" textLength="157" x="2233" y="539.9395">getSueldoBase(): double</text><ellipse cx="2224" cy="552.2266" fill="#84BE84" rx="3" ry="3" style="stroke:#038048;stroke-width:1.0;"/><text fill="#000000" font-family="sans-serif" font-size="14" font-style="italic" lengthAdjust="spacing" textLength="125" x="2233" y="555.5801">getSueldo(): double</text><ellipse cx="2224" cy="567.8672" fill="#84BE84" rx="3" ry="3" style="stroke:#038048;stroke-width:1.0;"/><text fill="#000000" font-family="sans-serif" font-size="14" lengthAdjust="spacing" textLength="237" x="2233" y="571.2207">getProyecto(codigo: String): Proyecto</text><ellipse cx="2224" cy="583.5078" fill="#84BE84" rx="3" ry="3" style="stroke:#038048;stroke-width:1.0;"/><text fill="#000000" font-family="sans-serif" font-size="14" lengthAdjust="spacing" textLength="243" x="2233" y="586.8613">addProyecto(proyecto: Proyecto): void</text></g><!--MD5=[3abac62e3fb4dcb5036b30eb3a8cb372]
class Ingeniero--><g id="elem_Ingeniero"><rect codeLine="25" fill="#FEFECE" filter="url(#f1tgyp98ebdchz)" height="126.2031" id="Ingeniero" style="stroke:#A80036;stroke-width:1.0;" width="780" x="1277.5" y="405"/><ellipse cx="1633.75" cy="421" fill="#ADD1B2" rx="11" ry="11" style="stroke:#A80036;stroke-width:1.0;"/><path d="M1635.75,417.5 Q1635.9531,417 1636.1875,416.75 Q1636.4219,416.5 1636.6875,416.5 Q1637.1563,416.5 1637.4531,416.7813 Q1637.75,417.0625 1637.75,417.7188 L1637.75,419.2813 Q1637.75,419.9375 1637.4688,420.2188 Q1637.1875,420.5 1636.75,420.5 Q1636.3594,420.5 1636.1094,420.3281 Q1635.8594,420.1563 1635.75,419.7031 Q1635.7031,419.3906 1635.5313,419.2188 Q1635.2188,418.8906 1634.6563,418.7031 Q1634.0938,418.5 1633.5313,418.5 Q1632.8281,418.5 1632.2344,418.7813 Q1631.6563,419.0625 1631.2031,419.6875 Q1630.75,420.3125 1630.75,421.1719 L1630.75,422.0938 Q1630.75,423.125 1631.5938,423.8125 Q1632.4375,424.5 1633.9375,424.5 Q1634.8281,424.5 1635.4531,424.2969 Q1635.8125,424.1875 1636.2188,423.8281 Q1636.4844,423.625 1636.625,423.5625 Q1636.7656,423.5 1636.9375,423.5 Q1637.2656,423.5 1637.5,423.7656 Q1637.75,424.0156 1637.75,424.375 Q1637.75,424.7188 1637.4063,425.125 Q1636.9063,425.7188 1636.1094,426.0469 Q1635.0625,426.5 1633.7813,426.5 Q1632.2813,426.5 1631.0781,425.9063 Q1630.1094,425.4375 1629.4219,424.4219 Q1628.75,423.4063 1628.75,422.2031 L1628.75,421.1094 Q1628.75,419.8594 1629.3438,418.7656 Q1629.9531,417.6719 1631,417.0938 Q1632.0625,416.5 1633.25,416.5 Q1633.9688,416.5 1634.5938,416.75 Q1635.2188,417 1635.75,417.5 Z " fill="#000000"/><text fill="#000000" font-family="sans-serif" font-size="14" lengthAdjust="spacing" textLength="59" x="1654.25" y="425.8535">Ingeniero</text><line style="stroke:#A80036;stroke-width:1.0;" x1="1278.5" x2="2056.5" y1="437" y2="437"/><rect fill="none" height="6" style="stroke:#C82930;stroke-width:1.0;" width="6" x="1285.5" y="447.3203"/><text fill="#000000" font-family="sans-serif" font-size="14" lengthAdjust="spacing" textLength="75" x="1297.5" y="453.6738">titulo: String</text><rect fill="none" height="6" style="stroke:#C82930;stroke-width:1.0;" width="6" x="1285.5" y="462.9609"/><text fill="#000000" font-family="sans-serif" font-size="14" lengthAdjust="spacing" textLength="188" x="1297.5" y="469.3145">cantidadCargasFamiliares: int</text><line style="stroke:#A80036;stroke-width:1.0;" x1="1278.5" x2="2056.5" y1="476.2813" y2="476.2813"/><ellipse cx="1288.5" cy="489.6016" fill="#84BE84" rx="3" ry="3" style="stroke:#038048;stroke-width:1.0;"/><text fill="#000000" font-family="sans-serif" font-size="14" lengthAdjust="spacing" textLength="754" x="1297.5" y="492.9551">Ingeniero(rut: String, nombre: String, direccion: String, sueldoBase: double, titulo: String, cantidadCargasFamiliares: int)</text><ellipse cx="1288.5" cy="505.2422" fill="#84BE84" rx="3" ry="3" style="stroke:#038048;stroke-width:1.0;"/><text fill="#000000" font-family="sans-serif" font-size="14" lengthAdjust="spacing" textLength="110" x="1297.5" y="508.5957">getTitulo(): String</text><ellipse cx="1288.5" cy="520.8828" fill="#84BE84" rx="3" ry="3" style="stroke:#038048;stroke-width:1.0;"/><text fill="#000000" font-family="sans-serif" font-size="14" lengthAdjust="spacing" textLength="221" x="1297.5" y="524.2363">getCantidadCargasFamiliares(): int</text></g><!--MD5=[b20e00587a225ed6777611190f26328c]
class Analista--><g id="elem_Analista"><rect codeLine="34" fill="#FEFECE" filter="url(#f1tgyp98ebdchz)" height="94.9219" id="Analista" style="stroke:#A80036;stroke-width:1.0;" width="630" x="1352.5" y="274.5"/><ellipse cx="1638.25" cy="290.5" fill="#ADD1B2" rx="11" ry="11" style="stroke:#A80036;stroke-width:1.0;"/><path d="M1640.25,287 Q1640.4531,286.5 1640.6875,286.25 Q1640.9219,286 1641.1875,286 Q1641.6563,286 1641.9531,286.2813 Q1642.25,286.5625 1642.25,287.2188 L1642.25,288.7813 Q1642.25,289.4375 1641.9688,289.7188 Q1641.6875,290 1641.25,290 Q1640.8594,290 1640.6094,289.8281 Q1640.3594,289.6563 1640.25,289.2031 Q1640.2031,288.8906 1640.0313,288.7188 Q1639.7188,288.3906 1639.1563,288.2031 Q1638.5938,288 1638.0313,288 Q1637.3281,288 1636.7344,288.2813 Q1636.1563,288.5625 1635.7031,289.1875 Q1635.25,289.8125 1635.25,290.6719 L1635.25,291.5938 Q1635.25,292.625 1636.0938,293.3125 Q1636.9375,294 1638.4375,294 Q1639.3281,294 1639.9531,293.7969 Q1640.3125,293.6875 1640.7188,293.3281 Q1640.9844,293.125 1641.125,293.0625 Q1641.2656,293 1641.4375,293 Q1641.7656,293 1642,293.2656 Q1642.25,293.5156 1642.25,293.875 Q1642.25,294.2188 1641.9063,294.625 Q1641.4063,295.2188 1640.6094,295.5469 Q1639.5625,296 1638.2813,296 Q1636.7813,296 1635.5781,295.4063 Q1634.6094,294.9375 1633.9219,293.9219 Q1633.25,292.9063 1633.25,291.7031 L1633.25,290.6094 Q1633.25,289.3594 1633.8438,288.2656 Q1634.4531,287.1719 1635.5,286.5938 Q1636.5625,286 1637.75,286 Q1638.4688,286 1639.0938,286.25 Q1639.7188,286.5 1640.25,287 Z " fill="#000000"/><text fill="#000000" font-family="sans-serif" font-size="14" lengthAdjust="spacing" textLength="50" x="1658.75" y="295.3535">Analista</text><line style="stroke:#A80036;stroke-width:1.0;" x1="1353.5" x2="1981.5" y1="306.5" y2="306.5"/><rect fill="none" height="6" style="stroke:#C82930;stroke-width:1.0;" width="6" x="1360.5" y="316.8203"/><text fill="#000000" font-family="sans-serif" font-size="14" lengthAdjust="spacing" textLength="130" x="1372.5" y="323.1738">aniosExperiencia: int</text><line style="stroke:#A80036;stroke-width:1.0;" x1="1353.5" x2="1981.5" y1="330.1406" y2="330.1406"/><ellipse cx="1363.5" cy="343.4609" fill="#84BE84" rx="3" ry="3" style="stroke:#038048;stroke-width:1.0;"/><text fill="#000000" font-family="sans-serif" font-size="14" lengthAdjust="spacing" textLength="604" x="1372.5" y="346.8145">Analista(rut: String, nombre: String, direccion: String, sueldoBase: double, aniosExperiencia: int)</text><ellipse cx="1363.5" cy="359.1016" fill="#84BE84" rx="3" ry="3" style="stroke:#038048;stroke-width:1.0;"/><text fill="#000000" font-family="sans-serif" font-size="14" lengthAdjust="spacing" textLength="161" x="1372.5" y="362.4551">getAniosExperiencia(): int</text></g><!--MD5=[bf065c7e0b1e7d3c9d0bd7f4c058ff0f]
class Programador--><g id="elem_Programador"><rect codeLine="41" fill="#FEFECE" filter="url(#f1tgyp98ebdchz)" height="157.4844" id="Programador" style="stroke:#A80036;stroke-width:1.0;" width="969" x="1183" y="82.5"/><ellipse cx="1621.75" cy="98.5" fill="#ADD1B2" rx="11" ry="11" style="stroke:#A80036;stroke-width:1.0;"/><path d="M1623.75,95 Q1623.9531,94.5 1624.1875,94.25 Q1624.4219,94 1624.6875,94 Q1625.1563,94 1625.4531,94.2813 Q1625.75,94.5625 1625.75,95.2188 L1625.75,96.7813 Q1625.75,97.4375 1625.4688,97.7188 Q1625.1875,98 1624.75,98 Q1624.3594,98 1624.1094,97.8281 Q1623.8594,97.6563 1623.75,97.2031 Q1623.7031,96.8906 1623.5313,96.7188 Q1623.2188,96.3906 1622.6563,96.2031 Q1622.0938,96 1621.5313,96 Q1620.8281,96 1620.2344,96.2813 Q1619.6563,96.5625 1619.2031,97.1875 Q1618.75,97.8125 1618.75,98.6719 L1618.75,99.5938 Q1618.75,100.625 1619.5938,101.3125 Q1620.4375,102 1621.9375,102 Q1622.8281,102 1623.4531,101.7969 Q1623.8125,101.6875 1624.2188,101.3281 Q1624.4844,101.125 1624.625,101.0625 Q1624.7656,101 1624.9375,101 Q1625.2656,101 1625.5,101.2656 Q1625.75,101.5156 1625.75,101.875 Q1625.75,102.2188 1625.4063,102.625 Q1624.9063,103.2188 1624.1094,103.5469 Q1623.0625,104 1621.7813,104 Q1620.2813,104 1619.0781,103.4063 Q1618.1094,102.9375 1617.4219,101.9219 Q1616.75,100.9063 1616.75,99.7031 L1616.75,98.6094 Q1616.75,97.3594 1617.3438,96.2656 Q1617.9531,95.1719 1619,94.5938 Q1620.0625,94 1621.25,94 Q1621.9688,94 1622.5938,94.25 Q1623.2188,94.5 1623.75,95 Z " fill="#000000"/><text fill="#000000" font-family="sans-serif" font-size="14" lengthAdjust="spacing" textLength="83" x="1642.25" y="103.3535">Programador</text><line style="stroke:#A80036;stroke-width:1.0;" x1="1184" x2="2151" y1="114.5" y2="114.5"/><rect fill="none" height="6" style="stroke:#C82930;stroke-width:1.0;" width="6" x="1191" y="124.8203"/><text fill="#000000" font-family="sans-serif" font-size="14" lengthAdjust="spacing" textLength="187" x="1203" y="131.1738">lenguajeProgramacion: String</text><rect fill="none" height="6" style="stroke:#C82930;stroke-width:1.0;" width="6" x="1191" y="140.4609"/><text fill="#000000" font-family="sans-serif" font-size="14" lengthAdjust="spacing" textLength="98" x="1203" y="146.8145">horasExtras: int</text><rect fill="none" height="6" style="stroke:#C82930;stroke-width:1.0;" width="6" x="1191" y="156.1016"/><text fill="#000000" font-family="sans-serif" font-size="14" lengthAdjust="spacing" textLength="135" x="1203" y="162.4551">nivelProgramador: int</text><line style="stroke:#A80036;stroke-width:1.0;" x1="1184" x2="2151" y1="169.4219" y2="169.4219"/><ellipse cx="1194" cy="182.7422" fill="#84BE84" rx="3" ry="3" style="stroke:#038048;stroke-width:1.0;"/><text fill="#000000" font-family="sans-serif" font-size="14" lengthAdjust="spacing" textLength="943" x="1203" y="186.0957">Programador(rut: String, nombre: String, direccion: String, sueldoBase: double, lenguajeProgramacion: String, horasExtras: int, nivelProgramador: int)</text><ellipse cx="1194" cy="198.3828" fill="#84BE84" rx="3" ry="3" style="stroke:#038048;stroke-width:1.0;"/><text fill="#000000" font-family="sans-serif" font-size="14" lengthAdjust="spacing" textLength="222" x="1203" y="201.7363">getLenguajeProgramacion(): String</text><ellipse cx="1194" cy="214.0234" fill="#84BE84" rx="3" ry="3" style="stroke:#038048;stroke-width:1.0;"/><text fill="#000000" font-family="sans-serif" font-size="14" lengthAdjust="spacing" textLength="129" x="1203" y="217.377">getHorasExtras(): int</text><ellipse cx="1194" cy="229.6641" fill="#84BE84" rx="3" ry="3" style="stroke:#038048;stroke-width:1.0;"/><text fill="#000000" font-family="sans-serif" font-size="14" lengthAdjust="spacing" textLength="166" x="1203" y="233.0176">getNivelProgramador(): int</text></g><!--MD5=[faada12487b37c3e3e7a1c6d4e583097]
class Proyecto--><g id="elem_Proyecto"><rect codeLine="52" fill="#FEFECE" filter="url(#f1tgyp98ebdchz)" height="298.25" id="Proyecto" style="stroke:#A80036;stroke-width:1.0;" width="429" x="526" y="319"/><ellipse cx="708.25" cy="335" fill="#ADD1B2" rx="11" ry="11" style="stroke:#A80036;stroke-width:1.0;"/><path d="M710.25,331.5 Q710.4531,331 710.6875,330.75 Q710.9219,330.5 711.1875,330.5 Q711.6563,330.5 711.9531,330.7813 Q712.25,331.0625 712.25,331.7188 L712.25,333.2813 Q712.25,333.9375 711.9688,334.2188 Q711.6875,334.5 711.25,334.5 Q710.8594,334.5 710.6094,334.3281 Q710.3594,334.1563 710.25,333.7031 Q710.2031,333.3906 710.0313,333.2188 Q709.7188,332.8906 709.1563,332.7031 Q708.5938,332.5 708.0313,332.5 Q707.3281,332.5 706.7344,332.7813 Q706.1563,333.0625 705.7031,333.6875 Q705.25,334.3125 705.25,335.1719 L705.25,336.0938 Q705.25,337.125 706.0938,337.8125 Q706.9375,338.5 708.4375,338.5 Q709.3281,338.5 709.9531,338.2969 Q710.3125,338.1875 710.7188,337.8281 Q710.9844,337.625 711.125,337.5625 Q711.2656,337.5 711.4375,337.5 Q711.7656,337.5 712,337.7656 Q712.25,338.0156 712.25,338.375 Q712.25,338.7188 711.9063,339.125 Q711.4063,339.7188 710.6094,340.0469 Q709.5625,340.5 708.2813,340.5 Q706.7813,340.5 705.5781,339.9063 Q704.6094,339.4375 703.9219,338.4219 Q703.25,337.4063 703.25,336.2031 L703.25,335.1094 Q703.25,333.8594 703.8438,332.7656 Q704.4531,331.6719 705.5,331.0938 Q706.5625,330.5 707.75,330.5 Q708.4688,330.5 709.0938,330.75 Q709.7188,331 710.25,331.5 Z " fill="#000000"/><text fill="#000000" font-family="sans-serif" font-size="14" lengthAdjust="spacing" textLength="56" x="728.75" y="339.8535">Proyecto</text><line style="stroke:#A80036;stroke-width:1.0;" x1="527" x2="954" y1="351" y2="351"/><rect fill="none" height="6" style="stroke:#C82930;stroke-width:1.0;" width="6" x="534" y="361.3203"/><text fill="#000000" font-family="sans-serif" font-size="14" lengthAdjust="spacing" textLength="87" x="546" y="367.6738">codigo: String</text><rect fill="none" height="6" style="stroke:#C82930;stroke-width:1.0;" width="6" x="534" y="376.9609"/><text fill="#000000" font-family="sans-serif" font-size="14" lengthAdjust="spacing" textLength="93" x="546" y="383.3145">nombre: String</text><rect fill="none" height="6" style="stroke:#C82930;stroke-width:1.0;" width="6" x="534" y="392.6016"/><text fill="#000000" font-family="sans-serif" font-size="14" lengthAdjust="spacing" textLength="119" x="546" y="398.9551">duracionMeses: int</text><rect fill="none" height="6" style="stroke:#C82930;stroke-width:1.0;" width="6" x="534" y="408.2422"/><text fill="#000000" font-family="sans-serif" font-size="14" lengthAdjust="spacing" textLength="85" x="546" y="414.5957">costo: double</text><line style="stroke:#A80036;stroke-width:1.0;" x1="527" x2="954" y1="421.5625" y2="421.5625"/><ellipse cx="537" cy="434.8828" fill="#84BE84" rx="3" ry="3" style="stroke:#038048;stroke-width:1.0;"/><text fill="#000000" font-family="sans-serif" font-size="14" lengthAdjust="spacing" textLength="403" x="546" y="438.2363">Proyecto(codigo: String, nombre: String, duracionMeses: String)</text><ellipse cx="537" cy="450.5234" fill="#84BE84" rx="3" ry="3" style="stroke:#038048;stroke-width:1.0;"/><text fill="#000000" font-family="sans-serif" font-size="14" lengthAdjust="spacing" textLength="120" x="546" y="453.877">getCodigo(): String</text><ellipse cx="537" cy="466.1641" fill="#84BE84" rx="3" ry="3" style="stroke:#038048;stroke-width:1.0;"/><text fill="#000000" font-family="sans-serif" font-size="14" lengthAdjust="spacing" textLength="124" x="546" y="469.5176">getNombre(): String</text><ellipse cx="537" cy="481.8047" fill="#84BE84" rx="3" ry="3" style="stroke:#038048;stroke-width:1.0;"/><text fill="#000000" font-family="sans-serif" font-size="14" lengthAdjust="spacing" textLength="151" x="546" y="485.1582">getDuracionMeses(): int</text><ellipse cx="537" cy="497.4453" fill="#84BE84" rx="3" ry="3" style="stroke:#038048;stroke-width:1.0;"/><text fill="#000000" font-family="sans-serif" font-size="14" lengthAdjust="spacing" textLength="118" x="546" y="500.7988">getCosto(): double</text><ellipse cx="537" cy="513.0859" fill="#84BE84" rx="3" ry="3" style="stroke:#038048;stroke-width:1.0;"/><text fill="#000000" font-family="sans-serif" font-size="14" lengthAdjust="spacing" textLength="171" x="546" y="516.4395">getCostoMensual(): double</text><ellipse cx="537" cy="528.7266" fill="#84BE84" rx="3" ry="3" style="stroke:#038048;stroke-width:1.0;"/><text fill="#000000" font-family="sans-serif" font-size="14" lengthAdjust="spacing" textLength="156" x="546" y="532.0801">getIngeniero(): Ingeniero</text><ellipse cx="537" cy="544.3672" fill="#84BE84" rx="3" ry="3" style="stroke:#038048;stroke-width:1.0;"/><text fill="#000000" font-family="sans-serif" font-size="14" lengthAdjust="spacing" textLength="138" x="546" y="547.7207">getAnalista(): Analista</text><ellipse cx="537" cy="560.0078" fill="#84BE84" rx="3" ry="3" style="stroke:#038048;stroke-width:1.0;"/><text fill="#000000" font-family="sans-serif" font-size="14" lengthAdjust="spacing" textLength="204" x="546" y="563.3613">getProgramador(): Programador</text><ellipse cx="537" cy="575.6484" fill="#84BE84" rx="3" ry="3" style="stroke:#038048;stroke-width:1.0;"/><text fill="#000000" font-family="sans-serif" font-size="14" lengthAdjust="spacing" textLength="220" x="546" y="579.002">setAnalista(analista: Analista): void</text><ellipse cx="537" cy="591.2891" fill="#84BE84" rx="3" ry="3" style="stroke:#038048;stroke-width:1.0;"/><text fill="#000000" font-family="sans-serif" font-size="14" lengthAdjust="spacing" textLength="248" x="546" y="594.6426">setIngeniero(ingeniero: Ingeniero): void</text><ellipse cx="537" cy="606.9297" fill="#84BE84" rx="3" ry="3" style="stroke:#038048;stroke-width:1.0;"/><text fill="#000000" font-family="sans-serif" font-size="14" lengthAdjust="spacing" textLength="319" x="546" y="610.2832">setProgramador(programador: Programador): void</text></g><!--MD5=[e4381c76bc805a63ed90da338136522b]
class Sistema--><g id="elem_Sistema"><rect codeLine="78" fill="#FEFECE" filter="url(#f1tgyp98ebdchz)" height="118.2031" id="Sistema" style="stroke:#A80036;stroke-width:1.0;" width="326" x="577.5" y="1115"/><ellipse cx="711.25" cy="1131" fill="#B4A7E5" rx="11" ry="11" style="stroke:#A80036;stroke-width:1.0;"/><path d="M712.25,1128 L712.25,1134 L714.25,1134 L714.7344,1134 L715.25,1134.625 L715.25,1135 L715.25,1135.375 L714.7344,1136 L714.25,1136 L708.25,1136 L707.7656,1136 L707.25,1135.375 L707.25,1135 L707.25,1134.625 L707.7656,1134 L708.25,1134 L710.25,1134 L710.25,1128 L708.25,1128 L707.7656,1128 L707.25,1127.375 L707.25,1127 L707.25,1126.625 L707.7656,1126 L708.25,1126 L714.25,1126 L714.7344,1126 L715.25,1126.625 L715.25,1127 L715.25,1127.375 L714.7344,1128 L714.25,1128 L712.25,1128 Z " fill="#000000"/><text fill="#000000" font-family="sans-serif" font-size="14" font-style="italic" lengthAdjust="spacing" textLength="50" x="731.75" y="1135.8535">Sistema</text><line style="stroke:#A80036;stroke-width:1.0;" x1="578.5" x2="902.5" y1="1147" y2="1147"/><ellipse cx="588.5" cy="1160.3203" fill="#84BE84" rx="3" ry="3" style="stroke:#038048;stroke-width:1.0;"/><text fill="#000000" font-family="sans-serif" font-size="14" lengthAdjust="spacing" textLength="208" x="597.5" y="1163.6738">getProyectosConCostos(): String</text><ellipse cx="588.5" cy="1175.9609" fill="#84BE84" rx="3" ry="3" style="stroke:#038048;stroke-width:1.0;"/><text fill="#000000" font-family="sans-serif" font-size="14" lengthAdjust="spacing" textLength="273" x="597.5" y="1179.3145">getListadoFuncionariosConSueldo(): String</text><ellipse cx="588.5" cy="1191.6016" fill="#84BE84" rx="3" ry="3" style="stroke:#038048;stroke-width:1.0;"/><text fill="#000000" font-family="sans-serif" font-size="14" lengthAdjust="spacing" textLength="300" x="597.5" y="1194.9551">getFuncionarios(codigoProyecto: String): String</text><ellipse cx="588.5" cy="1207.2422" fill="#84BE84" rx="3" ry="3" style="stroke:#038048;stroke-width:1.0;"/><text fill="#000000" font-family="sans-serif" font-size="14" lengthAdjust="spacing" textLength="200" x="597.5" y="1210.5957">getProyectos(rut: String): String</text><ellipse cx="588.5" cy="1222.8828" fill="#84BE84" rx="3" ry="3" style="stroke:#038048;stroke-width:1.0;"/><text fill="#000000" font-family="sans-serif" font-size="14" lengthAdjust="spacing" textLength="204" x="597.5" y="1226.2363">getProyectosIngenieros(): String</text></g><!--MD5=[ae97088928ca182e314ce9f753987002]
class SistemaImpl--><g id="elem_SistemaImpl"><rect codeLine="86" fill="#FEFECE" filter="url(#f1tgyp98ebdchz)" height="118.2031" id="SistemaImpl" style="stroke:#A80036;stroke-width:1.0;" width="325" x="56" y="1115"/><ellipse cx="176.75" cy="1131" fill="#ADD1B2" rx="11" ry="11" style="stroke:#A80036;stroke-width:1.0;"/><path d="M178.75,1127.5 Q178.9531,1127 179.1875,1126.75 Q179.4219,1126.5 179.6875,1126.5 Q180.1563,1126.5 180.4531,1126.7813 Q180.75,1127.0625 180.75,1127.7188 L180.75,1129.2813 Q180.75,1129.9375 180.4688,1130.2188 Q180.1875,1130.5 179.75,1130.5 Q179.3594,1130.5 179.1094,1130.3281 Q178.8594,1130.1563 178.75,1129.7031 Q178.7031,1129.3906 178.5313,1129.2188 Q178.2188,1128.8906 177.6563,1128.7031 Q177.0938,1128.5 176.5313,1128.5 Q175.8281,1128.5 175.2344,1128.7813 Q174.6563,1129.0625 174.2031,1129.6875 Q173.75,1130.3125 173.75,1131.1719 L173.75,1132.0938 Q173.75,1133.125 174.5938,1133.8125 Q175.4375,1134.5 176.9375,1134.5 Q177.8281,1134.5 178.4531,1134.2969 Q178.8125,1134.1875 179.2188,1133.8281 Q179.4844,1133.625 179.625,1133.5625 Q179.7656,1133.5 179.9375,1133.5 Q180.2656,1133.5 180.5,1133.7656 Q180.75,1134.0156 180.75,1134.375 Q180.75,1134.7188 180.4063,1135.125 Q179.9063,1135.7188 179.1094,1136.0469 Q178.0625,1136.5 176.7813,1136.5 Q175.2813,1136.5 174.0781,1135.9063 Q173.1094,1135.4375 172.4219,1134.4219 Q171.75,1133.4063 171.75,1132.2031 L171.75,1131.1094 Q171.75,1129.8594 172.3438,1128.7656 Q172.9531,1127.6719 174,1127.0938 Q175.0625,1126.5 176.25,1126.5 Q176.9688,1126.5 177.5938,1126.75 Q178.2188,1127 178.75,1127.5 Z " fill="#000000"/><text fill="#000000" font-family="sans-serif" font-size="14" lengthAdjust="spacing" textLength="75" x="197.25" y="1135.8535">SistemaImpl</text><line style="stroke:#A80036;stroke-width:1.0;" x1="57" x2="380" y1="1147" y2="1147"/><ellipse cx="67" cy="1160.3203" fill="#84BE84" rx="3" ry="3" style="stroke:#038048;stroke-width:1.0;"/><text fill="#000000" font-family="sans-serif" font-size="14" lengthAdjust="spacing" textLength="85" x="76" y="1163.6738">SistemaImpl()</text><rect fill="#F24D5C" height="6" style="stroke:#C82930;stroke-width:1.0;" width="6" x="64" y="1172.9609"/><text fill="#000000" font-family="sans-serif" font-size="14" lengthAdjust="spacing" textLength="148" x="76" y="1179.3145">cargarProyectos(): void</text><rect fill="#F24D5C" height="6" style="stroke:#C82930;stroke-width:1.0;" width="6" x="64" y="1188.6016"/><text fill="#000000" font-family="sans-serif" font-size="14" lengthAdjust="spacing" textLength="167" x="76" y="1194.9551">cargarFuncionarios(): void</text><rect fill="#F24D5C" height="6" style="stroke:#C82930;stroke-width:1.0;" width="6" x="64" y="1204.2422"/><text fill="#000000" font-family="sans-serif" font-size="14" lengthAdjust="spacing" textLength="299" x="76" y="1210.5957">cargarAsignacionFuncionariosProyectos(): void</text><ellipse cx="67" cy="1222.8828" fill="#84BE84" rx="3" ry="3" style="stroke:#038048;stroke-width:1.0;"/><text fill="#000000" font-family="sans-serif" font-size="14" lengthAdjust="spacing" text-decoration="underline" textLength="155" x="76" y="1226.2363">main(args[]: String): void</text></g><!--MD5=[681e34466aadbe92785df48f605aabe6]
class ListaFuncionario--><g id="elem_ListaFuncionario"><rect codeLine="97" fill="#FEFECE" filter="url(#f1tgyp98ebdchz)" height="157.4844" id="ListaFuncionario" style="stroke:#A80036;stroke-width:1.0;" width="276" x="602.5" y="883.5"/><ellipse cx="683.75" cy="899.5" fill="#ADD1B2" rx="11" ry="11" style="stroke:#A80036;stroke-width:1.0;"/><path d="M685.75,896 Q685.9531,895.5 686.1875,895.25 Q686.4219,895 686.6875,895 Q687.1563,895 687.4531,895.2813 Q687.75,895.5625 687.75,896.2188 L687.75,897.7813 Q687.75,898.4375 687.4688,898.7188 Q687.1875,899 686.75,899 Q686.3594,899 686.1094,898.8281 Q685.8594,898.6563 685.75,898.2031 Q685.7031,897.8906 685.5313,897.7188 Q685.2188,897.3906 684.6563,897.2031 Q684.0938,897 683.5313,897 Q682.8281,897 682.2344,897.2813 Q681.6563,897.5625 681.2031,898.1875 Q680.75,898.8125 680.75,899.6719 L680.75,900.5938 Q680.75,901.625 681.5938,902.3125 Q682.4375,903 683.9375,903 Q684.8281,903 685.4531,902.7969 Q685.8125,902.6875 686.2188,902.3281 Q686.4844,902.125 686.625,902.0625 Q686.7656,902 686.9375,902 Q687.2656,902 687.5,902.2656 Q687.75,902.5156 687.75,902.875 Q687.75,903.2188 687.4063,903.625 Q686.9063,904.2188 686.1094,904.5469 Q685.0625,905 683.7813,905 Q682.2813,905 681.0781,904.4063 Q680.1094,903.9375 679.4219,902.9219 Q678.75,901.9063 678.75,900.7031 L678.75,899.6094 Q678.75,898.3594 679.3438,897.2656 Q679.9531,896.1719 681,895.5938 Q682.0625,895 683.25,895 Q683.9688,895 684.5938,895.25 Q685.2188,895.5 685.75,896 Z " fill="#000000"/><text fill="#000000" font-family="sans-serif" font-size="14" lengthAdjust="spacing" textLength="105" x="704.25" y="904.3535">ListaFuncionario</text><line style="stroke:#A80036;stroke-width:1.0;" x1="603.5" x2="877.5" y1="915.5" y2="915.5"/><rect fill="none" height="6" style="stroke:#C82930;stroke-width:1.0;" width="6" x="610.5" y="925.8203"/><text fill="#000000" font-family="sans-serif" font-size="14" lengthAdjust="spacing" textLength="168" x="622.5" y="932.1738">funcionarios: Funcionario[]</text><rect fill="none" height="6" style="stroke:#C82930;stroke-width:1.0;" width="6" x="610.5" y="941.4609"/><text fill="#000000" font-family="sans-serif" font-size="14" lengthAdjust="spacing" textLength="47" x="622.5" y="947.8145">size: int</text><line style="stroke:#A80036;stroke-width:1.0;" x1="603.5" x2="877.5" y1="954.7813" y2="954.7813"/><ellipse cx="613.5" cy="968.1016" fill="#84BE84" rx="3" ry="3" style="stroke:#038048;stroke-width:1.0;"/><text fill="#000000" font-family="sans-serif" font-size="14" lengthAdjust="spacing" textLength="203" x="622.5" y="971.4551">ListaFuncionario(capacidad: int)</text><ellipse cx="613.5" cy="983.7422" fill="#84BE84" rx="3" ry="3" style="stroke:#038048;stroke-width:1.0;"/><text fill="#000000" font-family="sans-serif" font-size="14" lengthAdjust="spacing" textLength="79" x="622.5" y="987.0957">getSize(): int</text><ellipse cx="613.5" cy="999.3828" fill="#84BE84" rx="3" ry="3" style="stroke:#038048;stroke-width:1.0;"/><text fill="#000000" font-family="sans-serif" font-size="14" lengthAdjust="spacing" textLength="250" x="622.5" y="1002.7363">getFuncionario(rut: String): Funcionario</text><ellipse cx="613.5" cy="1015.0234" fill="#84BE84" rx="3" ry="3" style="stroke:#038048;stroke-width:1.0;"/><text fill="#000000" font-family="sans-serif" font-size="14" lengthAdjust="spacing" textLength="221" x="622.5" y="1018.377">add(funcionario: Funcionario): void</text><ellipse cx="613.5" cy="1030.6641" fill="#84BE84" rx="3" ry="3" style="stroke:#038048;stroke-width:1.0;"/><text fill="#000000" font-family="sans-serif" font-size="14" lengthAdjust="spacing" textLength="184" x="622.5" y="1034.0176">get(posicion int): Funcionario</text></g><!--MD5=[475c8c279200dff404aa72c2f99beb37]
class ListaProyecto--><g id="elem_ListaProyecto"><rect codeLine="109" fill="#FEFECE" filter="url(#f1tgyp98ebdchz)" height="157.4844" id="ListaProyecto" style="stroke:#A80036;stroke-width:1.0;" width="263" x="609" y="691.5"/><ellipse cx="693.25" cy="707.5" fill="#ADD1B2" rx="11" ry="11" style="stroke:#A80036;stroke-width:1.0;"/><path d="M695.25,704 Q695.4531,703.5 695.6875,703.25 Q695.9219,703 696.1875,703 Q696.6563,703 696.9531,703.2813 Q697.25,703.5625 697.25,704.2188 L697.25,705.7813 Q697.25,706.4375 696.9688,706.7188 Q696.6875,707 696.25,707 Q695.8594,707 695.6094,706.8281 Q695.3594,706.6563 695.25,706.2031 Q695.2031,705.8906 695.0313,705.7188 Q694.7188,705.3906 694.1563,705.2031 Q693.5938,705 693.0313,705 Q692.3281,705 691.7344,705.2813 Q691.1563,705.5625 690.7031,706.1875 Q690.25,706.8125 690.25,707.6719 L690.25,708.5938 Q690.25,709.625 691.0938,710.3125 Q691.9375,711 693.4375,711 Q694.3281,711 694.9531,710.7969 Q695.3125,710.6875 695.7188,710.3281 Q695.9844,710.125 696.125,710.0625 Q696.2656,710 696.4375,710 Q696.7656,710 697,710.2656 Q697.25,710.5156 697.25,710.875 Q697.25,711.2188 696.9063,711.625 Q696.4063,712.2188 695.6094,712.5469 Q694.5625,713 693.2813,713 Q691.7813,713 690.5781,712.4063 Q689.6094,711.9375 688.9219,710.9219 Q688.25,709.9063 688.25,708.7031 L688.25,707.6094 Q688.25,706.3594 688.8438,705.2656 Q689.4531,704.1719 690.5,703.5938 Q691.5625,703 692.75,703 Q693.4688,703 694.0938,703.25 Q694.7188,703.5 695.25,704 Z " fill="#000000"/><text fill="#000000" font-family="sans-serif" font-size="14" lengthAdjust="spacing" textLength="86" x="713.75" y="712.3535">ListaProyecto</text><line style="stroke:#A80036;stroke-width:1.0;" x1="610" x2="871" y1="723.5" y2="723.5"/><rect fill="none" height="6" style="stroke:#C82930;stroke-width:1.0;" width="6" x="617" y="733.8203"/><text fill="#000000" font-family="sans-serif" font-size="14" lengthAdjust="spacing" textLength="134" x="629" y="740.1738">proyectos: Proyecto[]</text><rect fill="none" height="6" style="stroke:#C82930;stroke-width:1.0;" width="6" x="617" y="749.4609"/><text fill="#000000" font-family="sans-serif" font-size="14" lengthAdjust="spacing" textLength="47" x="629" y="755.8145">size: int</text><line style="stroke:#A80036;stroke-width:1.0;" x1="610" x2="871" y1="762.7813" y2="762.7813"/><ellipse cx="620" cy="776.1016" fill="#84BE84" rx="3" ry="3" style="stroke:#038048;stroke-width:1.0;"/><text fill="#000000" font-family="sans-serif" font-size="14" lengthAdjust="spacing" textLength="184" x="629" y="779.4551">ListaProyecto(capacidad: int)</text><ellipse cx="620" cy="791.7422" fill="#84BE84" rx="3" ry="3" style="stroke:#038048;stroke-width:1.0;"/><text fill="#000000" font-family="sans-serif" font-size="14" lengthAdjust="spacing" textLength="79" x="629" y="795.0957">getSize(): int</text><ellipse cx="620" cy="807.3828" fill="#84BE84" rx="3" ry="3" style="stroke:#038048;stroke-width:1.0;"/><text fill="#000000" font-family="sans-serif" font-size="14" lengthAdjust="spacing" textLength="237" x="629" y="810.7363">getProyecto(codigo: String): Proyecto</text><ellipse cx="620" cy="823.0234" fill="#84BE84" rx="3" ry="3" style="stroke:#038048;stroke-width:1.0;"/><text fill="#000000" font-family="sans-serif" font-size="14" lengthAdjust="spacing" textLength="187" x="629" y="826.377">add(proyecto: Proyecto): void</text><ellipse cx="620" cy="838.6641" fill="#84BE84" rx="3" ry="3" style="stroke:#038048;stroke-width:1.0;"/><text fill="#000000" font-family="sans-serif" font-size="14" lengthAdjust="spacing" textLength="165" x="629" y="842.0176">get(posicion int): Proyecto</text></g><!--MD5=[73056ecffe69fefc0aacb26040e49623]
link Ingeniero to Funcionario--><g id="link_Ingeniero_Funcionario"><path codeLine="32" d="M2057.75,468 C2103.33,468 2149.12,468 2192.75,468 " fill="none" id="Ingeniero-to-Funcionario" style="stroke:#A80036;stroke-width:1.0;"/><polygon fill="none" points="2192.97,461,2212.97,468,2192.97,475,2192.97,461" style="stroke:#A80036;stroke-width:1.0;"/></g><!--MD5=[96ea9f9c854cb1f8163ba07686353ae1]
link Analista to Funcionario--><g id="link_Analista_Funcionario"><path codeLine="39" d="M1982.76,358.89 C2039.29,367.04 2097.54,376.45 2152,387 C2165.52,389.62 2179.31,392.46 2193.22,395.47 " fill="none" id="Analista-to-Funcionario" style="stroke:#A80036;stroke-width:1.0;"/><polygon fill="none" points="2194.91,388.67,2212.93,399.81,2191.89,402.34,2194.91,388.67" style="stroke:#A80036;stroke-width:1.0;"/></g><!--MD5=[885252294a1ad3f4cba1768c0144a59d]
link Programador to Funcionario--><g id="link_Programador_Funcionario"><path codeLine="50" d="M2105.75,239.58 C2121.5,245.01 2136.96,250.81 2152,257 C2199.21,276.44 2246.83,303.26 2290.34,331.27 " fill="none" id="Programador-to-Funcionario" style="stroke:#A80036;stroke-width:1.0;"/><polygon fill="none" points="2294.22,325.45,2307.12,342.27,2286.55,337.16,2294.22,325.45" style="stroke:#A80036;stroke-width:1.0;"/></g><!--MD5=[88961c1f3fe78af539e0fd9597d92198]
link Proyecto to Ingeniero--><g id="link_Proyecto_Ingeniero"><path codeLine="70" d="M955.17,468 C1049.45,468 1163.37,468 1272.16,468 " fill="none" id="Proyecto-to-Ingeniero" style="stroke:#A80036;stroke-width:1.0;"/><polygon fill="#A80036" points="1277.33,468,1268.33,464,1272.33,468,1268.33,472,1277.33,468" style="stroke:#A80036;stroke-width:1.0;"/><rect fill="none" height="6" style="stroke:#C82930;stroke-width:1.0;" width="6" x="1009" y="457.7617"/><text fill="#000000" font-family="sans-serif" font-size="13" lengthAdjust="spacing" textLength="112" x="1019" y="464.7686">ingeniero: Ingeniero</text><text fill="#000000" font-family="sans-serif" font-size="13" lengthAdjust="spacing" textLength="7" x="1262.3336" y="479.914">1</text></g><!--MD5=[2460e3a6aa31cf11257c06eeb806e12a]
link Proyecto to Analista--><g id="link_Proyecto_Analista"><path codeLine="71" d="M955.04,426.7 C1027.3,413.29 1108.54,398.83 1183,387 C1236.08,378.57 1292.56,370.32 1347.48,362.69 " fill="none" id="Proyecto-to-Analista" style="stroke:#A80036;stroke-width:1.0;"/><polygon fill="#A80036" points="1352.45,362,1342.9868,359.2709,1347.4972,362.6851,1344.083,367.1955,1352.45,362" style="stroke:#A80036;stroke-width:1.0;"/><rect fill="none" height="6" style="stroke:#C82930;stroke-width:1.0;" width="6" x="1015" y="382.7617"/><text fill="#000000" font-family="sans-serif" font-size="13" lengthAdjust="spacing" textLength="100" x="1025" y="389.7686">analista: Analista</text><text fill="#000000" font-family="sans-serif" font-size="13" lengthAdjust="spacing" textLength="7" x="1337.984" y="374.8772">1</text></g><!--MD5=[f4e5acff4e4ebe12429ea6edfcc920b2]
link Proyecto to Programador--><g id="link_Proyecto_Programador"><path codeLine="72" d="M955.13,352.67 C1026.08,317.98 1106.52,282.42 1183,257 C1199.89,251.39 1217.22,246.05 1234.82,240.99 " fill="none" id="Proyecto-to-Programador" style="stroke:#A80036;stroke-width:1.0;"/><polygon fill="#A80036" points="1239.79,239.57,1230.0374,238.1964,1234.9824,240.9436,1232.2352,245.8886,1239.79,239.57" style="stroke:#A80036;stroke-width:1.0;"/><rect fill="none" height="6" style="stroke:#C82930;stroke-width:1.0;" width="6" x="988" y="260.7617"/><text fill="#000000" font-family="sans-serif" font-size="13" lengthAdjust="spacing" textLength="154" x="998" y="267.7686">programador: Programador</text><text fill="#000000" font-family="sans-serif" font-size="13" lengthAdjust="spacing" textLength="7" x="1190.3428" y="259.7638">1</text></g><!--MD5=[6e94c13f54d427e919b48b67ad80c71b]
reverse link Proyecto to Funcionario--><g id="link_Proyecto_Funcionario"><path codeLine="73" d="M960.08,525.21 C1030.7,541.09 1109.69,556.12 1183,564 C1611.2,610.02 1725.94,626.81 2152,564 C2172,561.05 2192.48,557.12 2212.94,552.52 " fill="none" id="Proyecto-backto-Funcionario" style="stroke:#A80036;stroke-width:1.0;"/><polygon fill="#A80036" points="955.01,524.07,962.9116,529.9491,959.8879,525.1682,964.6688,522.1445,955.01,524.07" style="stroke:#A80036;stroke-width:1.0;"/><rect fill="none" height="6" style="stroke:#C82930;stroke-width:1.0;" width="6" x="1601" y="553.7617"/><text fill="#000000" font-family="sans-serif" font-size="13" lengthAdjust="spacing" textLength="125" x="1611" y="560.7686">proyectos: Proyecto[]</text><text fill="#000000" font-family="sans-serif" font-size="13" lengthAdjust="spacing" textLength="22" x="963.1143" y="538.11">1..5</text></g><!--MD5=[b7d001fe094b81c600628a7d90378bdf]
link SistemaImpl to Sistema--><g id="link_SistemaImpl_Sistema"><path codeLine="93" d="M381.18,1174 C437.05,1174 500.03,1174 557.42,1174 " fill="none" id="SistemaImpl-to-Sistema" style="stroke:#A80036;stroke-width:1.0;stroke-dasharray:7.0,7.0;"/><polygon fill="none" points="557.47,1167,577.47,1174,557.47,1181,557.47,1167" style="stroke:#A80036;stroke-width:1.0;"/></g><!--MD5=[dfe6871b4f6e5fb0614ea205b3fc841c]
link ListaFuncionario to Funcionario--><g id="link_ListaFuncionario_Funcionario"><path codeLine="106" d="M890.4412,934.851 C890.4412,934.851 1703.85,770.44 2152,614 C2167.9,608.45 2184.09,602.39 2200.32,596 " fill="none" id="ListaFuncionario-Funcionario" style="stroke:#A80036;stroke-width:1.0;"/><polygon fill="#A80036" points="2212.73,591.05,2202.8885,590.6686,2208.0857,592.9022,2205.8521,598.0994,2212.73,591.05" style="stroke:#A80036;stroke-width:1.0;"/><line style="stroke:#A80036;stroke-width:1.0;" x1="2208.0857" x2="2200.655" y1="592.9022" y2="595.865"/><polygon fill="none" points="878.65,937.08,885.2886,939.8959,890.4412,934.851,883.8026,932.0351,878.65,937.08" style="stroke:#A80036;stroke-width:1.0;"/><text fill="#000000" font-family="sans-serif" font-size="13" lengthAdjust="spacing" textLength="5" x="2199.9735" y="606.6823">*</text></g><!--MD5=[a8bcff0f70768fb92924ff7ca78253aa]
link SistemaImpl to ListaFuncionario--><g id="link_SistemaImpl_ListaFuncionario"><path codeLine="107" d="M364.35,1114.95 C437.13,1085.27 524.99,1049.45 597.39,1019.94 " fill="none" id="SistemaImpl-to-ListaFuncionario" style="stroke:#A80036;stroke-width:1.0;"/><polygon fill="#A80036" points="602.13,1018,592.2852,1017.7173,597.5045,1019.8987,595.3232,1025.1181,602.13,1018" style="stroke:#A80036;stroke-width:1.0;"/><rect fill="none" height="6" style="stroke:#C82930;stroke-width:1.0;" width="6" x="414" y="1057.7617"/><text fill="#000000" font-family="sans-serif" font-size="13" lengthAdjust="spacing" textLength="69" x="424" y="1064.7686">funcionarios</text><text fill="#000000" font-family="sans-serif" font-size="13" lengthAdjust="spacing" textLength="7" x="587.3715" y="1033.2149">1</text></g><!--MD5=[1107f1fc3097fc918750023198b8d336]
link ListaProyecto to Proyecto--><g id="link_ListaProyecto_Proyecto"><path codeLine="118" d="M740.5,679.26 C740.5,679.26 740.5,646.4 740.5,630.49 " fill="none" id="ListaProyecto-Proyecto" style="stroke:#A80036;stroke-width:1.0;"/><polygon fill="#A80036" points="740.5,617.13,736.5,626.13,740.5,622.13,744.5,626.13,740.5,617.13" style="stroke:#A80036;stroke-width:1.0;"/><line style="stroke:#A80036;stroke-width:1.0;" x1="740.5" x2="740.5" y1="622.13" y2="630.13"/><polygon fill="none" points="740.5,691.26,744.5,685.26,740.5,679.26,736.5,685.26,740.5,691.26" style="stroke:#A80036;stroke-width:1.0;"/><text fill="#000000" font-family="sans-serif" font-size="13" lengthAdjust="spacing" textLength="5" x="735.3711" y="636.9561">*</text></g><!--MD5=[ebee029c01878792518c7f7bb5ab17d8]
link SistemaImpl to ListaProyecto--><g id="link_SistemaImpl_ListaProyecto"><path codeLine="119" d="M260.96,1114.77 C311.2,1046.73 401.68,935.57 502,866 C532.87,844.59 569.22,826.86 604.07,812.71 " fill="none" id="SistemaImpl-to-ListaProyecto" style="stroke:#A80036;stroke-width:1.0;"/><polygon fill="#A80036" points="608.76,810.83,598.9181,810.4586,604.1176,812.687,601.8893,817.8864,608.76,810.83" style="stroke:#A80036;stroke-width:1.0;"/><rect fill="none" height="6" style="stroke:#C82930;stroke-width:1.0;" width="6" x="420" y="862.7617"/><text fill="#000000" font-family="sans-serif" font-size="13" lengthAdjust="spacing" textLength="57" x="430" y="869.7686">proyectos</text><text fill="#000000" font-family="sans-serif" font-size="13" lengthAdjust="spacing" textLength="7" x="593.9414" y="825.3649">1</text></g><!--MD5=[7074e8353efdc52fa8527399d4c988e2]
@startuml
left to right direction
hide empty members
skin rose

package cl.ucn.disc.pa.mandiosoft {

    package model {

        abstract class Funcionario {
            - MAX_PROYECTOS: int
            - rut: String
            - nombre: String
            - direccion: String
            - sueldoBase: double
            + Funcionario(rut: String, nombre: String, direccion: String, sueldoBase: double)
            + getRut(): String
            + getNombre(): String
            + getDireccion(): String
            + getSueldoBase(): double
            + {abstract} getSueldo(): double
            + getProyecto(codigo: String): Proyecto
            + addProyecto(proyecto: Proyecto): void
        }

        class Ingeniero {
            - titulo: String
            - cantidadCargasFamiliares: int
            + Ingeniero(rut: String, nombre: String, direccion: String, sueldoBase: double, titulo: String, cantidadCargasFamiliares: int)
            + getTitulo(): String
            + getCantidadCargasFamiliares(): int
        }
        Ingeniero - -|> Funcionario

        class Analista {
            - aniosExperiencia: int
            + Analista(rut: String, nombre: String, direccion: String, sueldoBase: double, aniosExperiencia: int)
            + getAniosExperiencia(): int
        }
        Analista - -|> Funcionario

        class Programador {
            - lenguajeProgramacion: String
            - horasExtras: int
            - nivelProgramador: int
            + Programador(rut: String, nombre: String, direccion: String, sueldoBase: double, lenguajeProgramacion: String, horasExtras: int, nivelProgramador: int)
            + getLenguajeProgramacion(): String
            + getHorasExtras(): int
            + getNivelProgramador(): int
        }
        Programador - -|> Funcionario

        class Proyecto {
            - codigo: String
            - nombre: String
            - duracionMeses: int
            - costo: double
            + Proyecto(codigo: String, nombre: String, duracionMeses: String)
            + getCodigo(): String
            + getNombre(): String
            + getDuracionMeses(): int
            + getCosto(): double
            + getCostoMensual(): double
            + getIngeniero(): Ingeniero
            + getAnalista(): Analista
            + getProgramador(): Programador
            + setAnalista(analista: Analista): void
            + setIngeniero(ingeniero: Ingeniero): void
            + setProgramador(programador: Programador): void
        }
        Proyecto - -> "1" Ingeniero: - ingeniero: Ingeniero
        Proyecto - -> "1" Analista: - analista: Analista
        Proyecto - -> "1" Programador: - programador: Programador
        Proyecto "1..5" <- - Funcionario: - proyectos: Proyecto[]
    }

    package services {

        interface Sistema {
            + getProyectosConCostos(): String
            + getListadoFuncionariosConSueldo(): String
            + getFuncionarios(codigoProyecto: String): String
            + getProyectos(rut: String): String
            + getProyectosIngenieros(): String
        }

        class SistemaImpl {
            + SistemaImpl()
            - cargarProyectos(): void
            - cargarFuncionarios(): void
            - cargarAsignacionFuncionariosProyectos(): void
            + {static} main(args[]: String): void
        }
        SistemaImpl ..|> Sistema
    }

    package utils {
        class ListaFuncionario {
            - funcionarios: Funcionario[]
            - size: int
            + ListaFuncionario(capacidad: int)
            + getSize(): int
            + getFuncionario(rut: String): Funcionario
            + add(funcionario: Funcionario): void
            + get(posicion int): Funcionario
        }
        ListaFuncionario o-> "*" Funcionario
        SistemaImpl - -> "1" ListaFuncionario: - funcionarios

        class ListaProyecto {
            - proyectos: Proyecto[]
            - size: int
            + ListaProyecto(capacidad: int)
            + getSize(): int
            + getProyecto(codigo: String): Proyecto
            + add(proyecto: Proyecto): void
            + get(posicion int): Proyecto
        }
        ListaProyecto o-> "*" Proyecto
        SistemaImpl - -> "1" ListaProyecto: - proyectos

    }
}


@enduml

PlantUML version 1.2022.7(Mon Aug 22 13:01:30 CLT 2022)
(GPL source distribution)
Java Runtime: OpenJDK Runtime Environment
JVM: OpenJDK 64-Bit Server VM
Default Encoding: Cp1252
Language: en
Country: US
--></g></svg>