<?xml version="1.0" encoding="UTF-8" standalone="no"?><svg xmlns="http://www.w3.org/2000/svg" xmlns:xlink="http://www.w3.org/1999/xlink" contentStyleType="text/css" height="492px" preserveAspectRatio="none" style="width:484px;height:492px;background:#FFFFFF;" version="1.1" viewBox="0 0 484 492" width="484px" zoomAndPan="magnify"><defs><filter height="300%" id="f1x7ch7n2bppyo" width="300%" x="-1" y="-1"><feGaussianBlur result="blurOut" stdDeviation="2.0"/><feColorMatrix in="blurOut" result="blurOut2" type="matrix" values="0 0 0 0 0 0 0 0 0 0 0 0 0 0 0 0 0 0 .4 0"/><feOffset dx="4.0" dy="4.0" in="blurOut2" result="blurOut3"/><feBlend in="SourceGraphic" in2="blurOut3" mode="normal"/></filter></defs><g><!--MD5=[faada12487b37c3e3e7a1c6d4e583097]
class Proyecto--><g id="elem_Proyecto"><rect codeLine="5" fill="#FEFECE" filter="url(#f1x7ch7n2bppyo)" height="102.5625" id="Proyecto" style="stroke:#A80036;stroke-width:1.0;" width="141" x="329" y="183.5"/><ellipse cx="367.85" cy="199.5" fill="#ADD1B2" rx="11" ry="11" style="stroke:#A80036;stroke-width:1.0;"/><path d="M366.35,200.5 L366.35,202.5 L370.35,202.5 L370.35,201.5 L370.35,201.0156 L370.975,200.5 L371.35,200.5 L371.725,200.5 L372.35,201.0156 L372.35,201.5 L372.35,204.5 L364.35,204.5 L363.8656,204.5 L363.35,203.875 L363.35,203.5 L363.35,203.125 L363.8656,202.5 L364.35,202.5 L364.35,202.5 L364.35,196.5 L364.35,196.5 L363.8656,196.5 L363.35,195.875 L363.35,195.5 L363.35,195.125 L363.8656,194.5 L364.35,194.5 L372.35,194.5 L372.35,197.5 L372.35,197.9844 L371.725,198.5 L371.35,198.5 L370.975,198.5 L370.35,197.9844 L370.35,197.5 L370.35,196.5 L366.35,196.5 L366.35,198.5 L367.35,198.5 L367.35,198.0156 L367.35,198.0156 L367.975,197.5 L368.35,197.5 L368.725,197.5 L369.35,198.0156 L369.35,198.5 L369.35,200.5 L369.35,200.9844 L368.725,201.5 L368.725,201.5 L368.35,201.5 L367.975,201.5 L367.35,200.9844 L367.35,200.9844 L367.35,200.5 L366.35,200.5 Z " fill="#000000"/><text fill="#000000" font-family="sans-serif" font-size="14" lengthAdjust="spacing" textLength="56" x="387.15" y="204.3535">Proyecto</text><line style="stroke:#A80036;stroke-width:1.0;" x1="330" x2="469" y1="215.5" y2="215.5"/><text fill="#000000" font-family="sans-serif" font-size="14" lengthAdjust="spacing" textLength="45" x="335" y="232.1738">Código</text><text fill="#000000" font-family="sans-serif" font-size="14" lengthAdjust="spacing" textLength="49" x="335" y="247.8145">Nombre</text><text fill="#000000" font-family="sans-serif" font-size="14" lengthAdjust="spacing" textLength="129" x="335" y="263.4551">Duracción en Meses</text><text fill="#000000" font-family="sans-serif" font-size="14" lengthAdjust="spacing" textLength="73" x="335" y="279.0957">Costo Total</text></g><!--MD5=[3abac62e3fb4dcb5036b30eb3a8cb372]
class Ingeniero--><g id="elem_Ingeniero"><rect codeLine="12" fill="#FEFECE" filter="url(#f1x7ch7n2bppyo)" height="133.8438" id="Ingeniero" style="stroke:#A80036;stroke-width:1.0;" width="208" x="7" y="7"/><ellipse cx="77.25" cy="23" fill="#ADD1B2" rx="11" ry="11" style="stroke:#A80036;stroke-width:1.0;"/><path d="M75.75,24 L75.75,26 L79.75,26 L79.75,25 L79.75,24.5156 L80.375,24 L80.75,24 L81.125,24 L81.75,24.5156 L81.75,25 L81.75,28 L73.75,28 L73.2656,28 L72.75,27.375 L72.75,27 L72.75,26.625 L73.2656,26 L73.75,26 L73.75,26 L73.75,20 L73.75,20 L73.2656,20 L72.75,19.375 L72.75,19 L72.75,18.625 L73.2656,18 L73.75,18 L81.75,18 L81.75,21 L81.75,21.4844 L81.125,22 L80.75,22 L80.375,22 L79.75,21.4844 L79.75,21 L79.75,20 L75.75,20 L75.75,22 L76.75,22 L76.75,21.5156 L76.75,21.5156 L77.375,21 L77.75,21 L78.125,21 L78.75,21.5156 L78.75,22 L78.75,24 L78.75,24.4844 L78.125,25 L78.125,25 L77.75,25 L77.375,25 L76.75,24.4844 L76.75,24.4844 L76.75,24 L75.75,24 Z " fill="#000000"/><text fill="#000000" font-family="sans-serif" font-size="14" lengthAdjust="spacing" textLength="59" x="97.75" y="27.8535">Ingeniero</text><line style="stroke:#A80036;stroke-width:1.0;" x1="8" x2="214" y1="39" y2="39"/><text fill="#000000" font-family="sans-serif" font-size="14" lengthAdjust="spacing" textLength="22" x="13" y="55.6738">Rut</text><text fill="#000000" font-family="sans-serif" font-size="14" lengthAdjust="spacing" textLength="49" x="13" y="71.3145">Nombre</text><text fill="#000000" font-family="sans-serif" font-size="14" lengthAdjust="spacing" textLength="59" x="13" y="86.9551">Dirección</text><text fill="#000000" font-family="sans-serif" font-size="14" lengthAdjust="spacing" textLength="80" x="13" y="102.5957">Sueldo Base</text><text fill="#000000" font-family="sans-serif" font-size="14" lengthAdjust="spacing" textLength="35" x="13" y="118.2363">Título</text><text fill="#000000" font-family="sans-serif" font-size="14" lengthAdjust="spacing" textLength="196" x="13" y="133.877">Cantidad de Cargas Familiares</text></g><!--MD5=[b20e00587a225ed6777611190f26328c]
class Analista--><g id="elem_Analista"><rect codeLine="22" fill="#FEFECE" filter="url(#f1x7ch7n2bppyo)" height="118.2031" id="Analista" style="stroke:#A80036;stroke-width:1.0;" width="141" x="40.5" y="176"/><ellipse cx="82.05" cy="192" fill="#ADD1B2" rx="11" ry="11" style="stroke:#A80036;stroke-width:1.0;"/><path d="M80.55,193 L80.55,195 L84.55,195 L84.55,194 L84.55,193.5156 L85.175,193 L85.55,193 L85.925,193 L86.55,193.5156 L86.55,194 L86.55,197 L78.55,197 L78.0656,197 L77.55,196.375 L77.55,196 L77.55,195.625 L78.0656,195 L78.55,195 L78.55,195 L78.55,189 L78.55,189 L78.0656,189 L77.55,188.375 L77.55,188 L77.55,187.625 L78.0656,187 L78.55,187 L86.55,187 L86.55,190 L86.55,190.4844 L85.925,191 L85.55,191 L85.175,191 L84.55,190.4844 L84.55,190 L84.55,189 L80.55,189 L80.55,191 L81.55,191 L81.55,190.5156 L81.55,190.5156 L82.175,190 L82.55,190 L82.925,190 L83.55,190.5156 L83.55,191 L83.55,193 L83.55,193.4844 L82.925,194 L82.925,194 L82.55,194 L82.175,194 L81.55,193.4844 L81.55,193.4844 L81.55,193 L80.55,193 Z " fill="#000000"/><text fill="#000000" font-family="sans-serif" font-size="14" lengthAdjust="spacing" textLength="50" x="101.95" y="196.8535">Analista</text><line style="stroke:#A80036;stroke-width:1.0;" x1="41.5" x2="180.5" y1="208" y2="208"/><text fill="#000000" font-family="sans-serif" font-size="14" lengthAdjust="spacing" textLength="22" x="46.5" y="224.6738">Rut</text><text fill="#000000" font-family="sans-serif" font-size="14" lengthAdjust="spacing" textLength="49" x="46.5" y="240.3145">Nombre</text><text fill="#000000" font-family="sans-serif" font-size="14" lengthAdjust="spacing" textLength="59" x="46.5" y="255.9551">Dirección</text><text fill="#000000" font-family="sans-serif" font-size="14" lengthAdjust="spacing" textLength="80" x="46.5" y="271.5957">Sueldo Base</text><text fill="#000000" font-family="sans-serif" font-size="14" lengthAdjust="spacing" textLength="129" x="46.5" y="287.2363">Años de Experiencia</text></g><!--MD5=[bf065c7e0b1e7d3c9d0bd7f4c058ff0f]
class Programador--><g id="elem_Programador"><rect codeLine="31" fill="#FEFECE" filter="url(#f1x7ch7n2bppyo)" height="149.4844" id="Programador" style="stroke:#A80036;stroke-width:1.0;" width="183" x="19.5" y="329.5"/><ellipse cx="65.25" cy="345.5" fill="#ADD1B2" rx="11" ry="11" style="stroke:#A80036;stroke-width:1.0;"/><path d="M63.75,346.5 L63.75,348.5 L67.75,348.5 L67.75,347.5 L67.75,347.0156 L68.375,346.5 L68.75,346.5 L69.125,346.5 L69.75,347.0156 L69.75,347.5 L69.75,350.5 L61.75,350.5 L61.2656,350.5 L60.75,349.875 L60.75,349.5 L60.75,349.125 L61.2656,348.5 L61.75,348.5 L61.75,348.5 L61.75,342.5 L61.75,342.5 L61.2656,342.5 L60.75,341.875 L60.75,341.5 L60.75,341.125 L61.2656,340.5 L61.75,340.5 L69.75,340.5 L69.75,343.5 L69.75,343.9844 L69.125,344.5 L68.75,344.5 L68.375,344.5 L67.75,343.9844 L67.75,343.5 L67.75,342.5 L63.75,342.5 L63.75,344.5 L64.75,344.5 L64.75,344.0156 L64.75,344.0156 L65.375,343.5 L65.75,343.5 L66.125,343.5 L66.75,344.0156 L66.75,344.5 L66.75,346.5 L66.75,346.9844 L66.125,347.5 L66.125,347.5 L65.75,347.5 L65.375,347.5 L64.75,346.9844 L64.75,346.9844 L64.75,346.5 L63.75,346.5 Z " fill="#000000"/><text fill="#000000" font-family="sans-serif" font-size="14" lengthAdjust="spacing" textLength="83" x="85.75" y="350.3535">Programador</text><line style="stroke:#A80036;stroke-width:1.0;" x1="20.5" x2="201.5" y1="361.5" y2="361.5"/><text fill="#000000" font-family="sans-serif" font-size="14" lengthAdjust="spacing" textLength="22" x="25.5" y="378.1738">Rut</text><text fill="#000000" font-family="sans-serif" font-size="14" lengthAdjust="spacing" textLength="49" x="25.5" y="393.8145">Nombre</text><text fill="#000000" font-family="sans-serif" font-size="14" lengthAdjust="spacing" textLength="59" x="25.5" y="409.4551">Dirección</text><text fill="#000000" font-family="sans-serif" font-size="14" lengthAdjust="spacing" textLength="80" x="25.5" y="425.0957">Sueldo Base</text><text fill="#000000" font-family="sans-serif" font-size="14" lengthAdjust="spacing" textLength="171" x="25.5" y="440.7363">Lenguaje de Programación</text><text fill="#000000" font-family="sans-serif" font-size="14" lengthAdjust="spacing" textLength="80" x="25.5" y="456.377">Horas Extras</text><text fill="#000000" font-family="sans-serif" font-size="14" lengthAdjust="spacing" textLength="137" x="25.5" y="472.0176">Nivel de Programador</text></g><!--MD5=[ddb1482a50755c85ef1a3324eb1c7385]
link Ingeniero to Proyecto--><g id="link_Ingeniero_Proyecto"><path codeLine="20" d="M215.03,131.9 C252.73,153.08 294.47,176.54 328.61,195.72 " fill="none" id="Ingeniero-Proyecto" style="stroke:#A80036;stroke-width:1.0;"/><polygon fill="#000000" points="254.359,144.711,247.9132,137.718,245.0338,142.8424,254.359,144.711" style="stroke:#000000;stroke-width:1.0;"/><text fill="#000000" font-family="sans-serif" font-size="13" lengthAdjust="spacing" textLength="39" x="259" y="146.7686">trabaja</text><text fill="#000000" font-family="sans-serif" font-size="13" lengthAdjust="spacing" textLength="7" x="222.9267" y="148.4596">1</text><text fill="#000000" font-family="sans-serif" font-size="13" lengthAdjust="spacing" textLength="22" x="294.8764" y="204.557">1..5</text></g><!--MD5=[b1facf97f5da42ca36f2ffdbe8f6565f]
link Analista to Proyecto--><g id="link_Analista_Proyecto"><path codeLine="29" d="M181.72,235 C226.44,235 284.28,235 328.96,235 " fill="none" id="Analista-Proyecto" style="stroke:#A80036;stroke-width:1.0;"/><polygon fill="#000000" points="255,227.2617,245.9549,224.3228,245.9549,230.2006,255,227.2617" style="stroke:#000000;stroke-width:1.0;"/><text fill="#000000" font-family="sans-serif" font-size="13" lengthAdjust="spacing" textLength="39" x="259" y="231.7686">trabaja</text><text fill="#000000" font-family="sans-serif" font-size="13" lengthAdjust="spacing" textLength="7" x="189.3739" y="247.5069">1</text><text fill="#000000" font-family="sans-serif" font-size="13" lengthAdjust="spacing" textLength="22" x="294.9976" y="247.4815">1..5</text></g><!--MD5=[76347a76e60f32454d4c3395ebf88d0e]
link Programador to Proyecto--><g id="link_Programador_Proyecto"><path codeLine="40" d="M202.65,350.53 C243.47,326.45 290.91,298.47 328.87,276.07 " fill="none" id="Programador-Proyecto" style="stroke:#A80036;stroke-width:1.0;"/><polygon fill="#000000" points="254.3065,284.7212,245.0227,286.7857,248.0092,291.8483,254.3065,284.7212" style="stroke:#000000;stroke-width:1.0;"/><text fill="#000000" font-family="sans-serif" font-size="13" lengthAdjust="spacing" textLength="39" x="259" y="291.7686">trabaja</text><text fill="#000000" font-family="sans-serif" font-size="13" lengthAdjust="spacing" textLength="7" x="210.5296" y="358.4519">1</text><text fill="#000000" font-family="sans-serif" font-size="13" lengthAdjust="spacing" textLength="22" x="294.899" y="292.466">1..5</text></g><!--MD5=[446477560ff631e13e77e7b659f1454b]
@startuml
left to right direction
hide empty members
skin rose

entity Proyecto {
    Código
    Nombre
    Duracción en Meses
    Costo Total
}

entity Ingeniero {
    Rut
    Nombre
    Dirección
    Sueldo Base
    Título
    Cantidad de Cargas Familiares
}
Ingeniero "1" - - "1..5 "Proyecto: trabaja >

entity Analista {
    Rut
    Nombre
    Dirección
    Sueldo Base
    Años de Experiencia
}
Analista "1" - - "1..5 "Proyecto: trabaja >

entity Programador {
    Rut
    Nombre
    Dirección
    Sueldo Base
    Lenguaje de Programación
    Horas Extras
    Nivel de Programador
}
Programador "1" - - "1..5 "Proyecto: trabaja >

@enduml

PlantUML version 1.2022.7(Mon Aug 22 13:01:30 CLT 2022)
(GPL source distribution)
Java Runtime: OpenJDK Runtime Environment
JVM: OpenJDK 64-Bit Server VM
Default Encoding: Cp1252
Language: en
Country: US
--></g></svg>