<?xml version="1.0" encoding="UTF-8" standalone="no"?><svg xmlns="http://www.w3.org/2000/svg" xmlns:xlink="http://www.w3.org/1999/xlink" contentStyleType="text/css" height="1017px" preserveAspectRatio="none" style="width:1472px;height:1017px;background:#FFFFFF;" version="1.1" viewBox="0 0 1472 1017" width="1472px" zoomAndPan="magnify"><defs><filter height="300%" id="fcrdrj1i77xak" width="300%" x="-1" y="-1"><feGaussianBlur result="blurOut" stdDeviation="2.0"/><feColorMatrix in="blurOut" result="blurOut2" type="matrix" values="0 0 0 0 0 0 0 0 0 0 0 0 0 0 0 0 0 0 .4 0"/><feOffset dx="4.0" dy="4.0" in="blurOut2" result="blurOut3"/><feBlend in="SourceGraphic" in2="blurOut3" mode="normal"/></filter></defs><g><!--MD5=[a33cefc71688801f1270471b76b835c2]
cluster cl.ucn.disc.pa.listaenlazada--><g id="cluster_cl.ucn.disc.pa.listaenlazada"><polygon fill="none" filter="url(#fcrdrj1i77xak)" points="16,6,213,6,220,27.6406,1451,27.6406,1451,1008,16,1008,16,6" style="stroke:#000000;stroke-width:1.5;"/><line style="stroke:#000000;stroke-width:1.5;" x1="16" x2="220" y1="27.6406" y2="27.6406"/><text fill="#000000" font-family="sans-serif" font-size="14" font-weight="bold" lengthAdjust="spacing" textLength="191" x="20" y="20.6738">cl.ucn.disc.pa.listaenlazada</text></g><!--MD5=[5235b4c3d2cb3d9a967b056c5832ea57]
cluster colecciones--><g id="cluster_colecciones"><polygon fill="none" filter="url(#fcrdrj1i77xak)" points="456,48,547,48,554,69.6406,1427,69.6406,1427,984,456,984,456,48" style="stroke:#000000;stroke-width:1.5;"/><line style="stroke:#000000;stroke-width:1.5;" x1="456" x2="554" y1="69.6406" y2="69.6406"/><text fill="#000000" font-family="sans-serif" font-size="14" font-weight="bold" lengthAdjust="spacing" textLength="85" x="460" y="62.6738">colecciones</text></g><!--MD5=[5d4cd377749310b66bf14896f5cd8d9b]
cluster model--><g id="cluster_model"><polygon fill="none" filter="url(#fcrdrj1i77xak)" points="40,613,89,613,96,634.6406,432,634.6406,432,820,40,820,40,613" style="stroke:#000000;stroke-width:1.5;"/><line style="stroke:#000000;stroke-width:1.5;" x1="40" x2="96" y1="634.6406" y2="634.6406"/><text fill="#000000" font-family="sans-serif" font-size="14" font-weight="bold" lengthAdjust="spacing" textLength="43" x="44" y="627.6738">model</text></g><!--MD5=[6d3950f02135f600bc78651f38d40f36]
class Elemento--><g id="elem_Elemento"><rect codeLine="8" fill="#FEFECE" filter="url(#fcrdrj1i77xak)" height="86.3281" id="Elemento" style="stroke:#A80036;stroke-width:1.0;" width="270" x="545" y="882"/><ellipse cx="646.25" cy="901.5234" fill="#B4A7E5" rx="11" ry="11" style="stroke:#A80036;stroke-width:1.0;"/><path d="M647.2031,898.1641 L647.2031,904.8203 L648.9219,904.8203 Q649.5313,904.8203 649.7969,905.0547 Q650.0625,905.2891 650.0625,905.6797 Q650.0625,906.0547 649.7969,906.2891 Q649.5313,906.5234 648.9219,906.5234 L643.7813,906.5234 Q643.1719,906.5234 642.9063,906.2891 Q642.6406,906.0547 642.6406,905.6641 Q642.6406,905.2891 642.9063,905.0547 Q643.1719,904.8203 643.7813,904.8203 L645.5,904.8203 L645.5,898.1641 L643.7813,898.1641 Q643.1719,898.1641 642.9063,897.9297 Q642.6406,897.6953 642.6406,897.3047 Q642.6406,896.9297 642.9063,896.6953 Q643.1719,896.4609 643.7813,896.4609 L648.9219,896.4609 Q649.5313,896.4609 649.7969,896.6953 Q650.0625,896.9297 650.0625,897.3047 Q650.0625,897.6953 649.7969,897.9297 Q649.5313,898.1641 648.9219,898.1641 L647.2031,898.1641 Z " fill="#000000"/><text fill="#000000" font-family="sans-serif" font-size="12" font-style="italic" lengthAdjust="spacing" textLength="61" x="665.75" y="897.8633">«interface»</text><text fill="#000000" font-family="sans-serif" font-size="14" font-style="italic" lengthAdjust="spacing" textLength="59" x="666.75" y="913.0801">Elemento</text><line style="stroke:#A80036;stroke-width:1.0;" x1="546" x2="814" y1="921.0469" y2="921.0469"/><line style="stroke:#A80036;stroke-width:1.0;" x1="546" x2="814" y1="929.0469" y2="929.0469"/><ellipse cx="556" cy="942.3672" fill="#84BE84" rx="3" ry="3" style="stroke:#038048;stroke-width:1.0;"/><text fill="#000000" font-family="sans-serif" font-size="14" lengthAdjust="spacing" textLength="239" x="565" y="945.7207">esIgual(elemento: Elemento): boolean</text><ellipse cx="556" cy="958.0078" fill="#84BE84" rx="3" ry="3" style="stroke:#038048;stroke-width:1.0;"/><text fill="#000000" font-family="sans-serif" font-size="14" lengthAdjust="spacing" textLength="244" x="565" y="961.3613">compararCon(elemento: Elemento): int</text></g><!--MD5=[51d01b056e41854a49db00f516bbe598]
class Nodo--><g id="elem_Nodo"><rect codeLine="13" fill="#FEFECE" filter="url(#fcrdrj1i77xak)" height="110.5625" id="Nodo" style="stroke:#A80036;stroke-width:1.0;" width="246" x="1020" y="394"/><ellipse cx="1122.25" cy="410" fill="#ADD1B2" rx="11" ry="11" style="stroke:#A80036;stroke-width:1.0;"/><path d="M1125.0156,405.875 Q1125.1719,405.6563 1125.3594,405.5469 Q1125.5469,405.4375 1125.7656,405.4375 Q1126.1406,405.4375 1126.375,405.7031 Q1126.6094,405.9531 1126.6094,406.5625 L1126.6094,408.0156 Q1126.6094,408.625 1126.375,408.8906 Q1126.1406,409.1563 1125.7656,409.1563 Q1125.4219,409.1563 1125.2188,408.9531 Q1125.0156,408.7656 1124.9063,408.25 Q1124.8594,407.8906 1124.6719,407.7031 Q1124.3438,407.3281 1123.7344,407.1094 Q1123.125,406.8906 1122.5,406.8906 Q1121.7344,406.8906 1121.0938,407.2188 Q1120.4688,407.5469 1119.9688,408.2969 Q1119.4844,409.0469 1119.4844,410.0781 L1119.4844,411.1719 Q1119.4844,412.4063 1120.375,413.2344 Q1121.2656,414.0469 1122.8594,414.0469 Q1123.7969,414.0469 1124.4531,413.7969 Q1124.8438,413.6406 1125.2656,413.2031 Q1125.5313,412.9375 1125.6719,412.8594 Q1125.8281,412.7813 1126.0313,412.7813 Q1126.3594,412.7813 1126.6094,413.0469 Q1126.875,413.2969 1126.875,413.6406 Q1126.875,413.9844 1126.5313,414.3906 Q1126.0313,414.9688 1125.2344,415.2969 Q1124.1563,415.75 1122.8594,415.75 Q1121.3438,415.75 1120.1406,415.125 Q1119.1563,414.625 1118.4688,413.5625 Q1117.7813,412.4844 1117.7813,411.2031 L1117.7813,410.0469 Q1117.7813,408.7188 1118.3906,407.5781 Q1119.0156,406.4219 1120.1094,405.8125 Q1121.2031,405.1875 1122.4375,405.1875 Q1123.1719,405.1875 1123.8125,405.3594 Q1124.4688,405.5156 1125.0156,405.875 Z " fill="#000000"/><text fill="#000000" font-family="sans-serif" font-size="14" lengthAdjust="spacing" textLength="33" x="1142.75" y="414.8535">Nodo</text><line style="stroke:#A80036;stroke-width:1.0;" x1="1021" x2="1265" y1="426" y2="426"/><line style="stroke:#A80036;stroke-width:1.0;" x1="1021" x2="1265" y1="434" y2="434"/><ellipse cx="1031" cy="447.3203" fill="#84BE84" rx="3" ry="3" style="stroke:#038048;stroke-width:1.0;"/><text fill="#000000" font-family="sans-serif" font-size="14" lengthAdjust="spacing" textLength="168" x="1040" y="450.6738">Nodo(elemento: Elemento)</text><ellipse cx="1031" cy="462.9609" fill="#84BE84" rx="3" ry="3" style="stroke:#038048;stroke-width:1.0;"/><text fill="#000000" font-family="sans-serif" font-size="14" lengthAdjust="spacing" textLength="156" x="1040" y="466.3145">getElemento(): Elemento</text><ellipse cx="1031" cy="478.6016" fill="#84BE84" rx="3" ry="3" style="stroke:#038048;stroke-width:1.0;"/><text fill="#000000" font-family="sans-serif" font-size="14" lengthAdjust="spacing" textLength="130" x="1040" y="481.9551">getSiguiente(): Nodo</text><ellipse cx="1031" cy="494.2422" fill="#84BE84" rx="3" ry="3" style="stroke:#038048;stroke-width:1.0;"/><text fill="#000000" font-family="sans-serif" font-size="14" lengthAdjust="spacing" textLength="220" x="1040" y="497.5957">setSiguiente(siguiente: Nodo): void</text></g><!--MD5=[39f530830672742a154bb2e3a55b4a26]
class Coleccion--><g id="elem_Coleccion"><rect codeLine="22" fill="#FEFECE" filter="url(#fcrdrj1i77xak)" height="148.8906" id="Coleccion" style="stroke:#A80036;stroke-width:1.0;" width="274" x="760" y="651"/><ellipse cx="861.75" cy="670.5234" fill="#B4A7E5" rx="11" ry="11" style="stroke:#A80036;stroke-width:1.0;"/><path d="M862.7031,667.1641 L862.7031,673.8203 L864.4219,673.8203 Q865.0313,673.8203 865.2969,674.0547 Q865.5625,674.2891 865.5625,674.6797 Q865.5625,675.0547 865.2969,675.2891 Q865.0313,675.5234 864.4219,675.5234 L859.2813,675.5234 Q858.6719,675.5234 858.4063,675.2891 Q858.1406,675.0547 858.1406,674.6641 Q858.1406,674.2891 858.4063,674.0547 Q858.6719,673.8203 859.2813,673.8203 L861,673.8203 L861,667.1641 L859.2813,667.1641 Q858.6719,667.1641 858.4063,666.9297 Q858.1406,666.6953 858.1406,666.3047 Q858.1406,665.9297 858.4063,665.6953 Q858.6719,665.4609 859.2813,665.4609 L864.4219,665.4609 Q865.0313,665.4609 865.2969,665.6953 Q865.5625,665.9297 865.5625,666.3047 Q865.5625,666.6953 865.2969,666.9297 Q865.0313,667.1641 864.4219,667.1641 L862.7031,667.1641 Z " fill="#000000"/><text fill="#000000" font-family="sans-serif" font-size="12" font-style="italic" lengthAdjust="spacing" textLength="61" x="882.75" y="666.8633">«interface»</text><text fill="#000000" font-family="sans-serif" font-size="14" font-style="italic" lengthAdjust="spacing" textLength="62" x="882.25" y="682.0801">Coleccion</text><line style="stroke:#A80036;stroke-width:1.0;" x1="761" x2="1033" y1="690.0469" y2="690.0469"/><line style="stroke:#A80036;stroke-width:1.0;" x1="761" x2="1033" y1="698.0469" y2="698.0469"/><ellipse cx="771" cy="711.3672" fill="#84BE84" rx="3" ry="3" style="stroke:#038048;stroke-width:1.0;"/><text fill="#000000" font-family="sans-serif" font-size="14" lengthAdjust="spacing" textLength="244" x="780" y="714.7207">agregar(elemento: Elemento): boolean</text><ellipse cx="771" cy="727.0078" fill="#84BE84" rx="3" ry="3" style="stroke:#038048;stroke-width:1.0;"/><text fill="#000000" font-family="sans-serif" font-size="14" lengthAdjust="spacing" textLength="248" x="780" y="730.3613">contiene(elemento: Elemento): boolean</text><ellipse cx="771" cy="742.6484" fill="#84BE84" rx="3" ry="3" style="stroke:#038048;stroke-width:1.0;"/><text fill="#000000" font-family="sans-serif" font-size="14" lengthAdjust="spacing" textLength="82" x="780" y="746.002">vaciar(): void</text><ellipse cx="771" cy="758.2891" fill="#84BE84" rx="3" ry="3" style="stroke:#038048;stroke-width:1.0;"/><text fill="#000000" font-family="sans-serif" font-size="14" lengthAdjust="spacing" textLength="114" x="780" y="761.6426">isVacia(): boolean</text><ellipse cx="771" cy="773.9297" fill="#84BE84" rx="3" ry="3" style="stroke:#038048;stroke-width:1.0;"/><text fill="#000000" font-family="sans-serif" font-size="14" lengthAdjust="spacing" textLength="243" x="780" y="777.2832">eliminar(elemento: Elemento): boolean</text><ellipse cx="771" cy="789.5703" fill="#84BE84" rx="3" ry="3" style="stroke:#038048;stroke-width:1.0;"/><text fill="#000000" font-family="sans-serif" font-size="14" lengthAdjust="spacing" textLength="83" x="780" y="792.9238">tamanio(): int</text></g><!--MD5=[abceb2bb61d296a097e5b23663675653]
class Lista--><g id="elem_Lista"><rect codeLine="32" fill="#FEFECE" filter="url(#fcrdrj1i77xak)" height="117.6094" id="Lista" style="stroke:#A80036;stroke-width:1.0;" width="328" x="1046" y="234"/><ellipse cx="1177.25" cy="253.5234" fill="#B4A7E5" rx="11" ry="11" style="stroke:#A80036;stroke-width:1.0;"/><path d="M1178.2031,250.1641 L1178.2031,256.8203 L1179.9219,256.8203 Q1180.5313,256.8203 1180.7969,257.0547 Q1181.0625,257.2891 1181.0625,257.6797 Q1181.0625,258.0547 1180.7969,258.2891 Q1180.5313,258.5234 1179.9219,258.5234 L1174.7813,258.5234 Q1174.1719,258.5234 1173.9063,258.2891 Q1173.6406,258.0547 1173.6406,257.6641 Q1173.6406,257.2891 1173.9063,257.0547 Q1174.1719,256.8203 1174.7813,256.8203 L1176.5,256.8203 L1176.5,250.1641 L1174.7813,250.1641 Q1174.1719,250.1641 1173.9063,249.9297 Q1173.6406,249.6953 1173.6406,249.3047 Q1173.6406,248.9297 1173.9063,248.6953 Q1174.1719,248.4609 1174.7813,248.4609 L1179.9219,248.4609 Q1180.5313,248.4609 1180.7969,248.6953 Q1181.0625,248.9297 1181.0625,249.3047 Q1181.0625,249.6953 1180.7969,249.9297 Q1180.5313,250.1641 1179.9219,250.1641 L1178.2031,250.1641 Z " fill="#000000"/><text fill="#000000" font-family="sans-serif" font-size="12" font-style="italic" lengthAdjust="spacing" textLength="61" x="1195.75" y="249.8633">«interface»</text><text fill="#000000" font-family="sans-serif" font-size="14" font-style="italic" lengthAdjust="spacing" textLength="30" x="1211.25" y="265.0801">Lista</text><line style="stroke:#A80036;stroke-width:1.0;" x1="1047" x2="1373" y1="273.0469" y2="273.0469"/><line style="stroke:#A80036;stroke-width:1.0;" x1="1047" x2="1373" y1="281.0469" y2="281.0469"/><ellipse cx="1057" cy="294.3672" fill="#84BE84" rx="3" ry="3" style="stroke:#038048;stroke-width:1.0;"/><text fill="#000000" font-family="sans-serif" font-size="14" lengthAdjust="spacing" textLength="302" x="1066" y="297.7207">agregar(posicion: int, elemento: Elemento): void</text><ellipse cx="1057" cy="310.0078" fill="#84BE84" rx="3" ry="3" style="stroke:#038048;stroke-width:1.0;"/><text fill="#000000" font-family="sans-serif" font-size="14" lengthAdjust="spacing" textLength="201" x="1066" y="313.3613">obtener(posicion: int): Elemento</text><ellipse cx="1057" cy="325.6484" fill="#84BE84" rx="3" ry="3" style="stroke:#038048;stroke-width:1.0;"/><text fill="#000000" font-family="sans-serif" font-size="14" lengthAdjust="spacing" textLength="228" x="1066" y="329.002">posicionDe(elemento: Elemento): int</text><ellipse cx="1057" cy="341.2891" fill="#84BE84" rx="3" ry="3" style="stroke:#038048;stroke-width:1.0;"/><text fill="#000000" font-family="sans-serif" font-size="14" lengthAdjust="spacing" textLength="201" x="1066" y="344.6426">eliminar(posicion: int): Elemento</text></g><!--MD5=[e695a6ad0825277c948ab1572ce4891e]
class ListaNexoSimple--><g id="elem_ListaNexoSimple"><rect codeLine="40" fill="#FEFECE" filter="url(#fcrdrj1i77xak)" height="63.6406" id="ListaNexoSimple" style="stroke:#A80036;stroke-width:1.0;" width="139" x="1185.5" y="82"/><ellipse cx="1202.3" cy="98" fill="#ADD1B2" rx="11" ry="11" style="stroke:#A80036;stroke-width:1.0;"/><path d="M1205.0656,93.875 Q1205.2219,93.6563 1205.4094,93.5469 Q1205.5969,93.4375 1205.8156,93.4375 Q1206.1906,93.4375 1206.425,93.7031 Q1206.6594,93.9531 1206.6594,94.5625 L1206.6594,96.0156 Q1206.6594,96.625 1206.425,96.8906 Q1206.1906,97.1563 1205.8156,97.1563 Q1205.4719,97.1563 1205.2688,96.9531 Q1205.0656,96.7656 1204.9563,96.25 Q1204.9094,95.8906 1204.7219,95.7031 Q1204.3938,95.3281 1203.7844,95.1094 Q1203.175,94.8906 1202.55,94.8906 Q1201.7844,94.8906 1201.1438,95.2188 Q1200.5188,95.5469 1200.0188,96.2969 Q1199.5344,97.0469 1199.5344,98.0781 L1199.5344,99.1719 Q1199.5344,100.4063 1200.425,101.2344 Q1201.3156,102.0469 1202.9094,102.0469 Q1203.8469,102.0469 1204.5031,101.7969 Q1204.8938,101.6406 1205.3156,101.2031 Q1205.5813,100.9375 1205.7219,100.8594 Q1205.8781,100.7813 1206.0813,100.7813 Q1206.4094,100.7813 1206.6594,101.0469 Q1206.925,101.2969 1206.925,101.6406 Q1206.925,101.9844 1206.5813,102.3906 Q1206.0813,102.9688 1205.2844,103.2969 Q1204.2063,103.75 1202.9094,103.75 Q1201.3938,103.75 1200.1906,103.125 Q1199.2063,102.625 1198.5188,101.5625 Q1197.8313,100.4844 1197.8313,99.2031 L1197.8313,98.0469 Q1197.8313,96.7188 1198.4406,95.5781 Q1199.0656,94.4219 1200.1594,93.8125 Q1201.2531,93.1875 1202.4875,93.1875 Q1203.2219,93.1875 1203.8625,93.3594 Q1204.5188,93.5156 1205.0656,93.875 Z " fill="#000000"/><text fill="#000000" font-family="sans-serif" font-size="14" lengthAdjust="spacing" textLength="103" x="1216.7" y="102.8535">ListaNexoSimple</text><line style="stroke:#A80036;stroke-width:1.0;" x1="1186.5" x2="1323.5" y1="114" y2="114"/><line style="stroke:#A80036;stroke-width:1.0;" x1="1186.5" x2="1323.5" y1="122" y2="122"/><ellipse cx="1196.5" cy="135.3203" fill="#84BE84" rx="3" ry="3" style="stroke:#038048;stroke-width:1.0;"/><text fill="#000000" font-family="sans-serif" font-size="14" lengthAdjust="spacing" textLength="113" x="1205.5" y="138.6738">ListaNexoSimple()</text></g><!--MD5=[10841634694ba8ab93f5d6e8f098527e]
class NodoDoble--><g id="elem_NodoDoble"><rect codeLine="46" fill="#FEFECE" filter="url(#fcrdrj1i77xak)" height="141.8438" id="NodoDoble" style="stroke:#A80036;stroke-width:1.0;" width="283" x="472.5" y="222"/><ellipse cx="574.75" cy="238" fill="#ADD1B2" rx="11" ry="11" style="stroke:#A80036;stroke-width:1.0;"/><path d="M577.5156,233.875 Q577.6719,233.6563 577.8594,233.5469 Q578.0469,233.4375 578.2656,233.4375 Q578.6406,233.4375 578.875,233.7031 Q579.1094,233.9531 579.1094,234.5625 L579.1094,236.0156 Q579.1094,236.625 578.875,236.8906 Q578.6406,237.1563 578.2656,237.1563 Q577.9219,237.1563 577.7188,236.9531 Q577.5156,236.7656 577.4063,236.25 Q577.3594,235.8906 577.1719,235.7031 Q576.8438,235.3281 576.2344,235.1094 Q575.625,234.8906 575,234.8906 Q574.2344,234.8906 573.5938,235.2188 Q572.9688,235.5469 572.4688,236.2969 Q571.9844,237.0469 571.9844,238.0781 L571.9844,239.1719 Q571.9844,240.4063 572.875,241.2344 Q573.7656,242.0469 575.3594,242.0469 Q576.2969,242.0469 576.9531,241.7969 Q577.3438,241.6406 577.7656,241.2031 Q578.0313,240.9375 578.1719,240.8594 Q578.3281,240.7813 578.5313,240.7813 Q578.8594,240.7813 579.1094,241.0469 Q579.375,241.2969 579.375,241.6406 Q579.375,241.9844 579.0313,242.3906 Q578.5313,242.9688 577.7344,243.2969 Q576.6563,243.75 575.3594,243.75 Q573.8438,243.75 572.6406,243.125 Q571.6563,242.625 570.9688,241.5625 Q570.2813,240.4844 570.2813,239.2031 L570.2813,238.0469 Q570.2813,236.7188 570.8906,235.5781 Q571.5156,234.4219 572.6094,233.8125 Q573.7031,233.1875 574.9375,233.1875 Q575.6719,233.1875 576.3125,233.3594 Q576.9688,233.5156 577.5156,233.875 Z " fill="#000000"/><text fill="#000000" font-family="sans-serif" font-size="14" lengthAdjust="spacing" textLength="70" x="595.25" y="242.8535">NodoDoble</text><line style="stroke:#A80036;stroke-width:1.0;" x1="473.5" x2="754.5" y1="254" y2="254"/><line style="stroke:#A80036;stroke-width:1.0;" x1="473.5" x2="754.5" y1="262" y2="262"/><ellipse cx="483.5" cy="275.3203" fill="#84BE84" rx="3" ry="3" style="stroke:#038048;stroke-width:1.0;"/><text fill="#000000" font-family="sans-serif" font-size="14" lengthAdjust="spacing" textLength="80" x="492.5" y="278.6738">NodoDoble()</text><ellipse cx="483.5" cy="290.9609" fill="#84BE84" rx="3" ry="3" style="stroke:#038048;stroke-width:1.0;"/><text fill="#000000" font-family="sans-serif" font-size="14" lengthAdjust="spacing" textLength="156" x="492.5" y="294.3145">getElemento(): Elemento</text><ellipse cx="483.5" cy="306.6016" fill="#84BE84" rx="3" ry="3" style="stroke:#038048;stroke-width:1.0;"/><text fill="#000000" font-family="sans-serif" font-size="14" lengthAdjust="spacing" textLength="167" x="492.5" y="309.9551">getSiguiente(): NodoDoble</text><ellipse cx="483.5" cy="322.2422" fill="#84BE84" rx="3" ry="3" style="stroke:#038048;stroke-width:1.0;"/><text fill="#000000" font-family="sans-serif" font-size="14" lengthAdjust="spacing" textLength="257" x="492.5" y="325.5957">setSiguiente(siguiente: NodoDoble): void</text><ellipse cx="483.5" cy="337.8828" fill="#84BE84" rx="3" ry="3" style="stroke:#038048;stroke-width:1.0;"/><text fill="#000000" font-family="sans-serif" font-size="14" lengthAdjust="spacing" textLength="158" x="492.5" y="341.2363">getAnterior(): NodoDoble</text><ellipse cx="483.5" cy="353.5234" fill="#84BE84" rx="3" ry="3" style="stroke:#038048;stroke-width:1.0;"/><text fill="#000000" font-family="sans-serif" font-size="14" lengthAdjust="spacing" textLength="240" x="492.5" y="356.877">setAnterior(anterior: NodoDoble): void</text></g><!--MD5=[b5aa8f291f83e41c5366db896e6ac2a2]
class ListaNexoDoble--><g id="elem_ListaNexoDoble"><rect codeLine="58" fill="#FEFECE" filter="url(#fcrdrj1i77xak)" height="63.6406" id="ListaNexoDoble" style="stroke:#A80036;stroke-width:1.0;" width="134" x="663" y="82"/><ellipse cx="679.8" cy="98" fill="#ADD1B2" rx="11" ry="11" style="stroke:#A80036;stroke-width:1.0;"/><path d="M682.5656,93.875 Q682.7219,93.6563 682.9094,93.5469 Q683.0969,93.4375 683.3156,93.4375 Q683.6906,93.4375 683.925,93.7031 Q684.1594,93.9531 684.1594,94.5625 L684.1594,96.0156 Q684.1594,96.625 683.925,96.8906 Q683.6906,97.1563 683.3156,97.1563 Q682.9719,97.1563 682.7688,96.9531 Q682.5656,96.7656 682.4563,96.25 Q682.4094,95.8906 682.2219,95.7031 Q681.8938,95.3281 681.2844,95.1094 Q680.675,94.8906 680.05,94.8906 Q679.2844,94.8906 678.6438,95.2188 Q678.0188,95.5469 677.5188,96.2969 Q677.0344,97.0469 677.0344,98.0781 L677.0344,99.1719 Q677.0344,100.4063 677.925,101.2344 Q678.8156,102.0469 680.4094,102.0469 Q681.3469,102.0469 682.0031,101.7969 Q682.3938,101.6406 682.8156,101.2031 Q683.0813,100.9375 683.2219,100.8594 Q683.3781,100.7813 683.5813,100.7813 Q683.9094,100.7813 684.1594,101.0469 Q684.425,101.2969 684.425,101.6406 Q684.425,101.9844 684.0813,102.3906 Q683.5813,102.9688 682.7844,103.2969 Q681.7063,103.75 680.4094,103.75 Q678.8938,103.75 677.6906,103.125 Q676.7063,102.625 676.0188,101.5625 Q675.3313,100.4844 675.3313,99.2031 L675.3313,98.0469 Q675.3313,96.7188 675.9406,95.5781 Q676.5656,94.4219 677.6594,93.8125 Q678.7531,93.1875 679.9875,93.1875 Q680.7219,93.1875 681.3625,93.3594 Q682.0188,93.5156 682.5656,93.875 Z " fill="#000000"/><text fill="#000000" font-family="sans-serif" font-size="14" lengthAdjust="spacing" textLength="98" x="694.2" y="102.8535">ListaNexoDoble</text><line style="stroke:#A80036;stroke-width:1.0;" x1="664" x2="796" y1="114" y2="114"/><line style="stroke:#A80036;stroke-width:1.0;" x1="664" x2="796" y1="122" y2="122"/><ellipse cx="674" cy="135.3203" fill="#84BE84" rx="3" ry="3" style="stroke:#038048;stroke-width:1.0;"/><text fill="#000000" font-family="sans-serif" font-size="14" lengthAdjust="spacing" textLength="108" x="683" y="138.6738">ListaNexoDoble()</text></g><!--MD5=[1d6438b19b75334de94d74596f8416e5]
class Vehiculo--><g id="elem_Vehiculo"><rect codeLine="69" fill="#FEFECE" filter="url(#fcrdrj1i77xak)" height="157.4844" id="Vehiculo" style="stroke:#A80036;stroke-width:1.0;" width="360" x="56" y="647"/><ellipse cx="204.75" cy="663" fill="#ADD1B2" rx="11" ry="11" style="stroke:#A80036;stroke-width:1.0;"/><path d="M207.5156,658.875 Q207.6719,658.6563 207.8594,658.5469 Q208.0469,658.4375 208.2656,658.4375 Q208.6406,658.4375 208.875,658.7031 Q209.1094,658.9531 209.1094,659.5625 L209.1094,661.0156 Q209.1094,661.625 208.875,661.8906 Q208.6406,662.1563 208.2656,662.1563 Q207.9219,662.1563 207.7188,661.9531 Q207.5156,661.7656 207.4063,661.25 Q207.3594,660.8906 207.1719,660.7031 Q206.8438,660.3281 206.2344,660.1094 Q205.625,659.8906 205,659.8906 Q204.2344,659.8906 203.5938,660.2188 Q202.9688,660.5469 202.4688,661.2969 Q201.9844,662.0469 201.9844,663.0781 L201.9844,664.1719 Q201.9844,665.4063 202.875,666.2344 Q203.7656,667.0469 205.3594,667.0469 Q206.2969,667.0469 206.9531,666.7969 Q207.3438,666.6406 207.7656,666.2031 Q208.0313,665.9375 208.1719,665.8594 Q208.3281,665.7813 208.5313,665.7813 Q208.8594,665.7813 209.1094,666.0469 Q209.375,666.2969 209.375,666.6406 Q209.375,666.9844 209.0313,667.3906 Q208.5313,667.9688 207.7344,668.2969 Q206.6563,668.75 205.3594,668.75 Q203.8438,668.75 202.6406,668.125 Q201.6563,667.625 200.9688,666.5625 Q200.2813,665.4844 200.2813,664.2031 L200.2813,663.0469 Q200.2813,661.7188 200.8906,660.5781 Q201.5156,659.4219 202.6094,658.8125 Q203.7031,658.1875 204.9375,658.1875 Q205.6719,658.1875 206.3125,658.3594 Q206.9688,658.5156 207.5156,658.875 Z " fill="#000000"/><text fill="#000000" font-family="sans-serif" font-size="14" lengthAdjust="spacing" textLength="54" x="225.25" y="667.8535">Vehiculo</text><line style="stroke:#A80036;stroke-width:1.0;" x1="57" x2="415" y1="679" y2="679"/><rect fill="none" height="6" style="stroke:#C82930;stroke-width:1.0;" width="6" x="64" y="689.3203"/><text fill="#000000" font-family="sans-serif" font-size="14" lengthAdjust="spacing" textLength="79" x="76" y="695.6738">placa: String</text><rect fill="none" height="6" style="stroke:#C82930;stroke-width:1.0;" width="6" x="64" y="704.9609"/><text fill="#000000" font-family="sans-serif" font-size="14" lengthAdjust="spacing" textLength="84" x="76" y="711.3145">marca: String</text><rect fill="none" height="6" style="stroke:#C82930;stroke-width:1.0;" width="6" x="64" y="720.6016"/><text fill="#000000" font-family="sans-serif" font-size="14" lengthAdjust="spacing" textLength="91" x="76" y="726.9551">modelo: String</text><line style="stroke:#A80036;stroke-width:1.0;" x1="57" x2="415" y1="733.9219" y2="733.9219"/><ellipse cx="67" cy="747.2422" fill="#84BE84" rx="3" ry="3" style="stroke:#038048;stroke-width:1.0;"/><text fill="#000000" font-family="sans-serif" font-size="14" lengthAdjust="spacing" textLength="334" x="76" y="750.5957">Vehiculo(placa: String, marca: String, modelo: String)</text><ellipse cx="67" cy="762.8828" fill="#84BE84" rx="3" ry="3" style="stroke:#038048;stroke-width:1.0;"/><text fill="#000000" font-family="sans-serif" font-size="14" lengthAdjust="spacing" textLength="110" x="76" y="766.2363">getPlaca(): String</text><ellipse cx="67" cy="778.5234" fill="#84BE84" rx="3" ry="3" style="stroke:#038048;stroke-width:1.0;"/><text fill="#000000" font-family="sans-serif" font-size="14" lengthAdjust="spacing" textLength="114" x="76" y="781.877">getMarca(): String</text><ellipse cx="67" cy="794.1641" fill="#84BE84" rx="3" ry="3" style="stroke:#038048;stroke-width:1.0;"/><text fill="#000000" font-family="sans-serif" font-size="14" lengthAdjust="spacing" textLength="121" x="76" y="797.5176">getModelo(): String</text></g><!--MD5=[74c442c18dcfa0a339b98576abd8bf06]
link Nodo to Elemento--><g id="link_Nodo_Elemento"><path codeLine="19" d="M1146.2919,517.3093 C1146.2919,517.3093 1133.5,745.19 1052,828 C1020.25,860.26 917.61,885.3 828.17,901.7 " fill="none" id="Nodo-Elemento" style="stroke:#A80036;stroke-width:1.0;"/><polygon fill="#A80036" points="815.36,904.01,824.926,906.3534,820.281,903.1248,823.5096,898.4798,815.36,904.01" style="stroke:#A80036;stroke-width:1.0;"/><line style="stroke:#A80036;stroke-width:1.0;" x1="820.281" x2="828.155" y1="903.1248" y2="901.705"/><polygon fill="#A80036" points="1146.16,505.31,1142.2262,511.3536,1146.2919,517.3093,1150.2257,511.2657,1146.16,505.31" style="stroke:#A80036;stroke-width:1.0;"/><rect fill="none" height="6" style="stroke:#C82930;stroke-width:1.0;" width="6" x="1146" y="586.7617"/><text fill="#000000" font-family="sans-serif" font-size="13" lengthAdjust="spacing" textLength="116" x="1156" y="593.7686">elemento: Elemento</text><text fill="#000000" font-family="sans-serif" font-size="13" lengthAdjust="spacing" textLength="7" x="822.9539" y="900.2532">1</text></g><!--MD5=[8782672b1eb52189c6c0b628bd4a282f]
link Nodo to Nodo--><g id="link_Nodo_Nodo"><path codeLine="20" d="M1278.0794,435.3016 C1278.0794,435.3016 1301,442.97 1301,449.5 C1301,456.03 1292.5,460.71 1279.13,463.53 " fill="none" id="Nodo-Nodo" style="stroke:#A80036;stroke-width:1.0;"/><polygon fill="#A80036" points="1266.22,465.53,1275.7251,468.1094,1271.1614,464.7668,1274.504,460.2032,1266.22,465.53" style="stroke:#A80036;stroke-width:1.0;"/><line style="stroke:#A80036;stroke-width:1.0;" x1="1271.1614" x2="1279.065" y1="464.7668" y2="463.54"/><polygon fill="none" points="1266.22,433.47,1271.5392,438.3389,1278.0794,435.3016,1272.7602,430.4327,1266.22,433.47" style="stroke:#A80036;stroke-width:1.0;"/><rect fill="none" height="6" style="stroke:#C82930;stroke-width:1.0;" width="6" x="1309" y="447.2617"/><text fill="#000000" font-family="sans-serif" font-size="13" lengthAdjust="spacing" textLength="90" x="1319" y="454.2686">siguiente: Nodo</text><text fill="#000000" font-family="sans-serif" font-size="13" lengthAdjust="spacing" textLength="22" x="1273.9796" y="463.8484">0..1</text></g><!--MD5=[20af7baf9ea1bd2990b3d3551c8668b5]
link Coleccion to Elemento--><g id="link_Coleccion_Elemento"><path codeLine="30" d="M816.2,800.04 C787.25,826.38 755.49,855.29 729.93,878.56 " fill="none" id="Coleccion-to-Elemento" style="stroke:#A80036;stroke-width:1.0;stroke-dasharray:7.0,7.0;"/><polygon fill="#A80036" points="726.2,881.95,735.5466,878.8449,729.8958,878.5824,730.1584,872.9316,726.2,881.95" style="stroke:#A80036;stroke-width:1.0;"/><text fill="#000000" font-family="sans-serif" font-size="13" lengthAdjust="spacing" textLength="42" x="776" y="848.7686">«uses»</text></g><!--MD5=[11c560a5735e8040aaeb08007fc586a0]
link Lista to Coleccion--><g id="link_Lista_Coleccion"><path codeLine="38" d="M1053.16,352.15 C1034.52,363.88 1017.14,377.73 1003,394 C945.22,460.47 918.86,558.78 906.88,630.9 " fill="none" id="Lista-to-Coleccion" style="stroke:#A80036;stroke-width:1.0;"/><polygon fill="none" points="913.76,632.26,903.81,650.97,899.92,630.14,913.76,632.26" style="stroke:#A80036;stroke-width:1.0;"/><text fill="#000000" font-family="sans-serif" font-size="13" lengthAdjust="spacing" textLength="60" x="929" y="547.7686">«extends»</text></g><!--MD5=[c54706ac95acc25d9fdd3155035a8333]
link ListaNexoSimple to Nodo--><g id="link_ListaNexoSimple_Nodo"><path codeLine="43" d="M1326.8489,152.7846 C1326.8489,152.7846 1378.23,193.77 1392,222 C1419.67,278.72 1428.76,312.7 1392,364 C1365.56,400.9 1322.09,421.88 1278.81,433.74 " fill="none" id="ListaNexoSimple-Nodo" style="stroke:#A80036;stroke-width:1.0;"/><polygon fill="#A80036" points="1266.02,437,1275.7277,438.6615,1270.8662,435.7692,1273.7585,430.9077,1266.02,437" style="stroke:#A80036;stroke-width:1.0;"/><line style="stroke:#A80036;stroke-width:1.0;" x1="1270.8662" x2="1278.62" y1="435.7692" y2="433.79"/><polygon fill="#A80036" points="1316.83,146.18,1319.6379,152.8219,1326.8489,152.7846,1324.041,146.1426,1316.83,146.18" style="stroke:#A80036;stroke-width:1.0;"/><rect fill="none" height="6" style="stroke:#C82930;stroke-width:1.0;" width="6" x="1374" y="181.7617"/><text fill="#000000" font-family="sans-serif" font-size="13" lengthAdjust="spacing" textLength="80" x="1384" y="188.7686">cabeza: Nodo</text><text fill="#000000" font-family="sans-serif" font-size="13" lengthAdjust="spacing" textLength="22" x="1274.1868" y="433.6096">0..1</text></g><!--MD5=[26dbb4ab127f826b2b11c64c524c0927]
link ListaNexoSimple to Lista--><g id="link_ListaNexoSimple_Lista"><path codeLine="44" d="M1212.37,146.17 C1203.7,154.78 1195.77,164.85 1191,176 C1185.94,187.82 1184.52,200.84 1185.25,213.77 " fill="none" id="ListaNexoSimple-to-Lista" style="stroke:#A80036;stroke-width:1.0;stroke-dasharray:7.0,7.0;"/><polygon fill="none" points="1192.22,213.05,1187.97,233.81,1178.35,214.93,1192.22,213.05" style="stroke:#A80036;stroke-width:1.0;"/><text fill="#000000" font-family="sans-serif" font-size="13" lengthAdjust="spacing" textLength="81" x="1192" y="188.7686">«implements»</text></g><!--MD5=[ea4c491967f96ce27cde740ffe34c647]
link NodoDoble to Elemento--><g id="link_NodoDoble_Elemento"><path codeLine="54" d="M622.5897,376.0658 C622.5897,376.0658 662.6,757.92 674.21,868.73 " fill="none" id="NodoDoble-Elemento" style="stroke:#A80036;stroke-width:1.0;"/><polygon fill="#A80036" points="675.58,881.85,678.6288,872.4849,675.0634,876.8768,670.6716,873.3114,675.58,881.85" style="stroke:#A80036;stroke-width:1.0;"/><line style="stroke:#A80036;stroke-width:1.0;" x1="675.0634" x2="674.225" y1="876.8768" y2="868.92"/><polygon fill="#A80036" points="621.35,364.13,617.9913,370.5111,622.5897,376.0658,625.9485,369.6846,621.35,364.13" style="stroke:#A80036;stroke-width:1.0;"/><rect fill="none" height="6" style="stroke:#C82930;stroke-width:1.0;" width="6" x="648" y="586.7617"/><text fill="#000000" font-family="sans-serif" font-size="13" lengthAdjust="spacing" textLength="116" x="658" y="593.7686">elemento: Elemento</text><text fill="#000000" font-family="sans-serif" font-size="13" lengthAdjust="spacing" textLength="7" x="667.2683" y="871.3286">1</text></g><!--MD5=[aee1ce937e378719f84bc5ef9d4febef]
link NodoDoble to NodoDoble--><g id="link_NodoDoble_NodoDoble"><path codeLine="55" d="M767.5475,284.9609 C767.5475,284.9609 790.5,289.39 790.5,293 C790.5,296.61 782.09,299.25 768.64,300.93 " fill="none" id="NodoDoble-NodoDoble" style="stroke:#A80036;stroke-width:1.0;"/><polygon fill="#A80036" points="755.6,302.16,764.9343,305.3018,760.5781,301.693,764.187,297.3368,755.6,302.16" style="stroke:#A80036;stroke-width:1.0;"/><line style="stroke:#A80036;stroke-width:1.0;" x1="760.5781" x2="768.545" y1="301.693" y2="300.94"/><polygon fill="none" points="755.6,283.84,761.2001,288.383,767.5475,284.9609,761.9474,280.4179,755.6,283.84" style="stroke:#A80036;stroke-width:1.0;"/><rect fill="none" height="6" style="stroke:#C82930;stroke-width:1.0;" width="6" x="798.5" y="290.7617"/><text fill="#000000" font-family="sans-serif" font-size="13" lengthAdjust="spacing" textLength="90" x="808.5" y="297.7686">siguiente: Nodo</text><text fill="#000000" font-family="sans-serif" font-size="13" lengthAdjust="spacing" textLength="22" x="763.4684" y="300.0575">0..1</text></g><!--MD5=[aee1ce937e378719f84bc5ef9d4febef]
link NodoDoble to NodoDoble--><g id="link_NodoDoble_NodoDoble"><path codeLine="56" d="M767.6862,272.9268 C767.6862,272.9268 904.5,278.33 904.5,293 C904.5,307.67 839.55,314.37 768.93,313.1 " fill="none" id="NodoDoble-NodoDoble-1" style="stroke:#A80036;stroke-width:1.0;"/><polygon fill="#A80036" points="755.69,312.77,764.5861,316.9961,760.6884,312.8963,764.7882,308.9987,755.69,312.77" style="stroke:#A80036;stroke-width:1.0;"/><line style="stroke:#A80036;stroke-width:1.0;" x1="760.6884" x2="768.685" y1="312.8963" y2="313.09"/><polygon fill="none" points="755.69,273.23,761.7892,277.0771,767.6862,272.9268,761.587,269.0797,755.69,273.23" style="stroke:#A80036;stroke-width:1.0;"/><rect fill="none" height="6" style="stroke:#C82930;stroke-width:1.0;" width="6" x="912.5" y="290.7617"/><text fill="#000000" font-family="sans-serif" font-size="13" lengthAdjust="spacing" textLength="81" x="922.5" y="297.7686">anterior: Nodo</text><text fill="#000000" font-family="sans-serif" font-size="13" lengthAdjust="spacing" textLength="22" x="763.5631" y="325.9364">0..1</text></g><!--MD5=[11929df0c6dc4b0a93928dd93d25b56f]
link ListaNexoDoble to NodoDoble--><g id="link_ListaNexoDoble_NodoDoble"><path codeLine="61" d="M710.5757,156.8341 C710.5757,156.8341 697.75,181.29 691,192 C686.99,198.35 682.68,204.8 678.22,211.19 " fill="none" id="ListaNexoDoble-NodoDoble" style="stroke:#A80036;stroke-width:1.0;"/><polygon fill="#A80036" points="670.58,221.89,679.0603,216.8816,673.4815,217.818,672.5451,212.2392,670.58,221.89" style="stroke:#A80036;stroke-width:1.0;"/><line style="stroke:#A80036;stroke-width:1.0;" x1="673.4815" x2="678.135" y1="217.818" y2="211.31"/><polygon fill="#A80036" points="715.9,146.08,709.6531,149.6823,710.5757,156.8341,716.8225,153.2318,715.9,146.08" style="stroke:#A80036;stroke-width:1.0;"/><rect fill="none" height="6" style="stroke:#C82930;stroke-width:1.0;" width="6" x="702" y="181.7617"/><text fill="#000000" font-family="sans-serif" font-size="13" lengthAdjust="spacing" textLength="80" x="712" y="188.7686">cabeza: Nodo</text><text fill="#000000" font-family="sans-serif" font-size="13" lengthAdjust="spacing" textLength="22" x="653.5653" y="211.1524">0..1</text></g><!--MD5=[11929df0c6dc4b0a93928dd93d25b56f]
link ListaNexoDoble to NodoDoble--><g id="link_ListaNexoDoble_NodoDoble"><path codeLine="62" d="M652.0882,137.7297 C652.0882,137.7297 617.31,159.38 607,176 C600.9,185.84 597.88,197.1 596.88,208.65 " fill="none" id="ListaNexoDoble-NodoDoble-1" style="stroke:#A80036;stroke-width:1.0;"/><polygon fill="#A80036" points="596.54,221.75,600.7761,212.8587,596.672,216.7517,592.7789,212.6476,596.54,221.75" style="stroke:#A80036;stroke-width:1.0;"/><line style="stroke:#A80036;stroke-width:1.0;" x1="596.672" x2="596.875" y1="216.7517" y2="208.75"/><polygon fill="#A80036" points="662.96,132.65,655.8309,131.5659,652.0882,137.7297,659.2173,138.8138,662.96,132.65" style="stroke:#A80036;stroke-width:1.0;"/><rect fill="none" height="6" style="stroke:#C82930;stroke-width:1.0;" width="6" x="610" y="181.7617"/><text fill="#000000" font-family="sans-serif" font-size="13" lengthAdjust="spacing" textLength="62" x="620" y="188.7686">cola: Nodo</text><text fill="#000000" font-family="sans-serif" font-size="13" lengthAdjust="spacing" textLength="22" x="571.6051" y="211.4841">0..1</text></g><!--MD5=[2f750a4cbdc17a82510ede4a37dfff86]
link ListaNexoDoble to Lista--><g id="link_ListaNexoDoble_Lista"><path codeLine="63" d="M797.03,138.58 C857.53,159.98 948.91,192.6 1028,222 C1032.19,223.56 1036.43,225.14 1040.71,226.74 " fill="none" id="ListaNexoDoble-to-Lista" style="stroke:#A80036;stroke-width:1.0;stroke-dasharray:7.0,7.0;"/><polygon fill="none" points="1043.38,220.27,1059.64,233.87,1038.45,233.37,1043.38,220.27" style="stroke:#A80036;stroke-width:1.0;"/><text fill="#000000" font-family="sans-serif" font-size="13" lengthAdjust="spacing" textLength="81" x="939" y="188.7686">«implements»</text></g><!--MD5=[f89484207fb2091692e7e6f188257ddf]
link Vehiculo to Elemento--><g id="link_Vehiculo_Elemento"><path codeLine="78" d="M402.75,804.01 C420.69,812.18 438.71,820.31 456,828 C490.17,843.2 527.44,859.35 561.6,873.98 " fill="none" id="Vehiculo-to-Elemento" style="stroke:#A80036;stroke-width:1.0;stroke-dasharray:7.0,7.0;"/><polygon fill="none" points="564.58,867.64,580.22,881.93,559.08,880.51,564.58,867.64" style="stroke:#A80036;stroke-width:1.0;"/><text fill="#000000" font-family="sans-serif" font-size="13" lengthAdjust="spacing" textLength="81" x="505" y="848.7686">«implements»</text></g><!--MD5=[3106d0c110c2f6bcc78b4b3e5a182d87]
@startuml
' left to right direction
' hide empty members
skin rose

package cl.ucn.disc.pa.listaenlazada {

    package colecciones {
        interface Elemento <<interface>> {
            + esIgual(elemento: Elemento): boolean
            + compararCon(elemento: Elemento): int
        }

        class Nodo {
            + Nodo(elemento: Elemento)
            + getElemento(): Elemento
            + getSiguiente(): Nodo
            + setSiguiente(siguiente: Nodo): void
        }
        Nodo *- -> "1" Elemento: - elemento: Elemento
        Nodo o- -> "0..1" Nodo: - siguiente: Nodo

        interface Coleccion <<interface>> {
            + agregar(elemento: Elemento): boolean
            + contiene(elemento: Elemento): boolean
            + vaciar(): void
            + isVacia(): boolean
            + eliminar(elemento: Elemento): boolean
            + tamanio(): int
        }
        Coleccion ..> Elemento: <<uses>>

        interface Lista <<interface>> {
            + agregar(posicion: int, elemento: Elemento): void
            + obtener(posicion: int): Elemento
            + posicionDe(elemento: Elemento): int
            + eliminar(posicion: int): Elemento
        }
        Lista - - -|> Coleccion: <<extends>>

        class ListaNexoSimple {
            + ListaNexoSimple()
        }
        ListaNexoSimple *- -> "0..1" Nodo: - cabeza: Nodo
        ListaNexoSimple ..|> Lista: <<implements>>

        class NodoDoble {
            + NodoDoble()
            + getElemento(): Elemento
            + getSiguiente(): NodoDoble
            + setSiguiente(siguiente: NodoDoble): void
            + getAnterior(): NodoDoble
            + setAnterior(anterior: NodoDoble): void
        }
        NodoDoble *- -> "1" Elemento: - elemento: Elemento
        NodoDoble o- -> "0..1" NodoDoble: - siguiente: Nodo
        NodoDoble o- -> "0..1" NodoDoble: - anterior: Nodo

        class ListaNexoDoble {
            + ListaNexoDoble()
        }
        ListaNexoDoble *- -> "0..1" NodoDoble: - cabeza: Nodo
        ListaNexoDoble *- -> "0..1" NodoDoble: - cola: Nodo
        ListaNexoDoble ..|> Lista: <<implements>>

    }

    package model {

        class Vehiculo {
            - placa: String
            - marca: String
            - modelo: String
            + Vehiculo(placa: String, marca: String, modelo: String)
            + getPlaca(): String
            + getMarca(): String
            + getModelo(): String
        }
        Vehiculo ..|> Elemento: <<implements>>

    }

}




@enduml

@startuml
skin rose

package cl.ucn.disc.pa.listaenlazada {

    package colecciones {
        interface Elemento <<interface>> {
            + esIgual(elemento: Elemento): boolean
            + compararCon(elemento: Elemento): int
        }

        class Nodo {
            + Nodo(elemento: Elemento)
            + getElemento(): Elemento
            + getSiguiente(): Nodo
            + setSiguiente(siguiente: Nodo): void
        }
        Nodo *- -> "1" Elemento: - elemento: Elemento
        Nodo o- -> "0..1" Nodo: - siguiente: Nodo

        interface Coleccion <<interface>> {
            + agregar(elemento: Elemento): boolean
            + contiene(elemento: Elemento): boolean
            + vaciar(): void
            + isVacia(): boolean
            + eliminar(elemento: Elemento): boolean
            + tamanio(): int
        }
        Coleccion ..> Elemento: <<uses>>

        interface Lista <<interface>> {
            + agregar(posicion: int, elemento: Elemento): void
            + obtener(posicion: int): Elemento
            + posicionDe(elemento: Elemento): int
            + eliminar(posicion: int): Elemento
        }
        Lista - - -|> Coleccion: <<extends>>

        class ListaNexoSimple {
            + ListaNexoSimple()
        }
        ListaNexoSimple *- -> "0..1" Nodo: - cabeza: Nodo
        ListaNexoSimple ..|> Lista: <<implements>>

        class NodoDoble {
            + NodoDoble()
            + getElemento(): Elemento
            + getSiguiente(): NodoDoble
            + setSiguiente(siguiente: NodoDoble): void
            + getAnterior(): NodoDoble
            + setAnterior(anterior: NodoDoble): void
        }
        NodoDoble *- -> "1" Elemento: - elemento: Elemento
        NodoDoble o- -> "0..1" NodoDoble: - siguiente: Nodo
        NodoDoble o- -> "0..1" NodoDoble: - anterior: Nodo

        class ListaNexoDoble {
            + ListaNexoDoble()
        }
        ListaNexoDoble *- -> "0..1" NodoDoble: - cabeza: Nodo
        ListaNexoDoble *- -> "0..1" NodoDoble: - cola: Nodo
        ListaNexoDoble ..|> Lista: <<implements>>

    }

    package model {

        class Vehiculo {
            - placa: String
            - marca: String
            - modelo: String
            + Vehiculo(placa: String, marca: String, modelo: String)
            + getPlaca(): String
            + getMarca(): String
            + getModelo(): String
        }
        Vehiculo ..|> Elemento: <<implements>>

    }

}




@enduml

PlantUML version 1.2022.12(Sun Oct 23 15:12:26 CLST 2022)
(GPL source distribution)
Java Runtime: OpenJDK Runtime Environment
JVM: OpenJDK 64-Bit Server VM
Default Encoding: Cp1252
Language: en
Country: US
--></g></svg>